<svg width="145" height="165" viewBox="0 0 145 165" fill="none" xmlns="http://www.w3.org/2000/svg">
<path d="M58.9959 27.9889H59.9959V26.9889H58.9959V27.9889ZM62.5307 27.9889V26.9889H61.5307V27.9889H62.5307ZM61.5307 37.7022C61.5307 38.2544 61.9784 38.7022 62.5307 38.7022C63.0829 38.7022 63.5307 38.2544 63.5307 37.7022H61.5307ZM59.3128 9.61753L58.4146 9.1779L59.3128 9.61753ZM62.9156 9.63849L62.0124 10.0676L62.9156 9.63849ZM51.7298 25.1096L50.8317 24.67L51.7298 25.1096ZM70.2764 25.1306L71.1796 24.7015L70.2764 25.1306ZM23.0352 84.7673V80.8168H21.0352V84.7673H23.0352ZM59.9959 43.856V27.9889H57.9959V43.856H59.9959ZM58.9959 26.9889H53.5262V28.9889H58.9959V26.9889ZM52.628 25.5493L60.211 10.0572L58.4146 9.1779L50.8317 24.67L52.628 25.5493ZM62.0124 10.0676L69.3732 25.5598L71.1796 24.7015L63.8188 9.20934L62.0124 10.0676ZM68.4699 26.9889H62.5307V28.9889H68.4699V26.9889ZM61.5307 27.9889V37.7022H63.5307V27.9889H61.5307ZM60.211 10.0572C60.5791 9.30516 61.6531 9.31141 62.0124 10.0676L63.8188 9.20934C62.7409 6.94063 59.5189 6.92189 58.4146 9.1779L60.211 10.0572ZM53.5262 26.9889C52.7865 26.9889 52.3028 26.2137 52.628 25.5493L50.8317 24.67C49.8561 26.6631 51.3071 28.9889 53.5262 28.9889V26.9889ZM58.5559 45.296C59.3512 45.296 59.9959 44.6513 59.9959 43.856H57.9959C57.9959 43.5467 58.2467 43.296 58.5559 43.296V45.296ZM69.3732 25.5598C69.6884 26.2233 69.2046 26.9889 68.4699 26.9889V28.9889C70.6738 28.9889 72.1254 26.6921 71.1796 24.7015L69.3732 25.5598ZM23.0352 80.8168C23.0352 61.1992 38.9384 45.296 58.5559 45.296V43.296C37.8338 43.296 21.0352 60.0946 21.0352 80.8168H23.0352Z" fill="#2AF895"/>
<path d="M39.2991 88.1642C38.5296 85.9604 38.1113 83.5922 38.1113 81.1265C38.1113 69.3284 47.6859 59.7642 59.4966 59.7642C71.3073 59.7642 80.8818 69.3284 80.8818 81.1265C80.8818 83.5922 80.4635 85.9607 79.694 88.1642" fill="url(#paint0_linear_305_8609)" fill-opacity="0.5"/>
<path d="M39.2991 88.1642C38.5296 85.9604 38.1113 83.5922 38.1113 81.1265C38.1113 69.3284 47.6859 59.7642 59.4966 59.7642C71.3073 59.7642 80.8818 69.3284 80.8818 81.1265C80.8818 83.5922 80.4635 85.9607 79.694 88.1642" stroke="#2AF895" stroke-width="2" stroke-miterlimit="10" stroke-linecap="round" stroke-linejoin="round"/>
<path d="M64.2812 88.3033C65.6902 85.7496 65.109 82.2498 61.5967 81.0096C59.0213 80.1001 57.1102 79.2822 55.8403 78.287C53.6285 76.5539 54.4368 72.1053 57.6916 71.1259C61.2365 70.0591 63.5361 72.178 63.5361 72.178L63.8524 72.4219" stroke="#2AF895" stroke-width="4" stroke-miterlimit="10" stroke-linecap="round" stroke-linejoin="round"/>
<path d="M59.7051 67.0166L59.7051 70.5667" stroke="#2AF895" stroke-width="4" stroke-miterlimit="10" stroke-linecap="round" stroke-linejoin="round"/>
<path d="M81.1484 61.1069C86.0212 66.3635 88.9997 73.3978 88.9997 81.1269C88.9997 83.5522 88.7063 85.9093 88.1532 88.1643" stroke="#07572E" stroke-width="2" stroke-miterlimit="10" stroke-linecap="round" stroke-linejoin="round"/>
<path d="M30.8121 88.0551C30.276 85.8332 29.9922 83.5128 29.9922 81.1266C29.9922 64.8494 43.2016 51.6541 59.4963 51.6541C64.5832 51.6541 69.3693 52.9401 73.5469 55.2042" stroke="#07572E" stroke-width="2" stroke-miterlimit="10" stroke-linecap="round" stroke-linejoin="round"/>
<path d="M2.13281 153.225V76.957C3.18638 80.5353 6.47094 82.9922 10.2011 82.9922H125.339C130.309 82.9922 134.339 87.0217 134.339 91.9922V153.225C134.339 158.748 129.862 163.225 124.339 163.225H12.1328C6.60996 163.225 2.13281 158.748 2.13281 153.225Z" fill="url(#paint1_linear_305_8609)"/>
<path d="M100.221 123.109C100.221 116.05 105.943 110.328 113.001 110.328H136.868C140.181 110.328 142.868 113.015 142.868 116.328V129.889C142.868 133.203 140.181 135.889 136.868 135.889H113.001C105.943 135.889 100.221 130.167 100.221 123.109Z" fill="url(#paint2_linear_305_8609)"/>
<path d="M117.581 124.387C118.302 121.925 116.888 119.345 114.424 118.624C111.959 117.904 109.376 119.316 108.655 121.778C107.934 124.24 109.348 126.82 111.812 127.54C114.277 128.261 116.86 126.849 117.581 124.387Z" stroke="#44494F" stroke-miterlimit="10" stroke-linecap="round" stroke-linejoin="round"/>
<path d="M92.5067 66.0601H107.618C112.258 66.0601 116.02 69.8178 116.02 74.4531V82.8462H10.5271C5.88679 82.8462 2.125 79.0884 2.125 74.4531C2.125 69.8178 5.88679 66.0601 10.5271 66.0601H18.126" stroke="#44494F" stroke-miterlimit="10" stroke-linecap="round" stroke-linejoin="round"/>
<path d="M134.382 110.328V91.2395C134.382 86.6042 130.62 82.8464 125.98 82.8464H116.305" stroke="#44494F" stroke-miterlimit="10" stroke-linecap="round" stroke-linejoin="round"/>
<path d="M2.125 74.7363V154.929C2.125 159.564 5.88679 163.322 10.5271 163.322H125.979C130.619 163.322 134.381 159.564 134.381 154.929V135.906" stroke="#44494F" stroke-miterlimit="10" stroke-linecap="round" stroke-linejoin="round"/>
<path d="M113.114 110.452C106.13 110.452 100.469 116.108 100.469 123.084C100.469 130.06 106.13 135.716 113.114 135.716H138.63C140.976 135.716 142.878 133.816 142.878 131.472V114.696C142.878 112.352 140.976 110.452 138.63 110.452H122.653" stroke="#44494F" stroke-miterlimit="10" stroke-linecap="round" stroke-linejoin="round"/>
<defs>
<linearGradient id="paint0_linear_305_8609" x1="59.7059" y1="59.9164" x2="59.7059" y2="88.3173" gradientUnits="userSpaceOnUse">
<stop stop-color="#06AA53"/>
<stop offset="1" stop-color="#024421"/>
</linearGradient>
<linearGradient id="paint1_linear_305_8609" x1="69.5268" y1="171.789" x2="69.5268" y2="69.8568" gradientUnits="userSpaceOnUse">
<stop stop-color="#16171A"/>
<stop offset="1" stop-color="#2D3135"/>
</linearGradient>
<linearGradient id="paint2_linear_305_8609" x1="142.868" y1="122.754" x2="100.221" y2="123.108" gradientUnits="userSpaceOnUse">
<stop stop-color="#262A2D"/>
<stop offset="0.302764" stop-color="#212427"/>
<stop offset="1" stop-color="#16171A"/>
</linearGradient>
</defs>
</svg>
