<svg width="124" height="89" viewBox="0 0 124 89" fill="none" xmlns="http://www.w3.org/2000/svg">
<path d="M22.1633 4.65234H109.246C110.402 4.65234 111.339 5.58941 111.339 6.74535V19.3376V82.2546C111.339 83.4105 110.402 84.3476 109.246 84.3476H22.1633C21.0074 84.3476 20.0703 83.4105 20.0703 82.2546V19.3376V6.74535C20.0703 5.58942 21.0074 4.65234 22.1633 4.65234Z" fill="url(#paint0_linear_478_18105)"/>
<path d="M20.0703 19.3376V82.2546C20.0703 83.4105 21.0074 84.3476 22.1633 84.3476H109.246C110.402 84.3476 111.339 83.4105 111.339 82.2546V19.3376M20.0703 19.3376V6.74535C20.0703 5.58942 21.0074 4.65234 22.1633 4.65234H109.246C110.402 4.65234 111.339 5.58941 111.339 6.74535V19.3376M20.0703 19.3376H111.339" stroke="#44494F"/>
<path d="M76.9346 47.5593C76.9346 58.7187 67.9843 67.7656 56.9436 67.7656C55.9235 67.7656 54.9217 67.6879 53.9423 67.5393C53.9444 67.5393 53.9466 67.537 53.9491 67.537C54.1957 67.4684 54.4332 67.3792 54.6639 67.2764C56.6881 66.3847 58.0814 64.3453 58.0814 61.9767C58.0814 60.3763 57.4392 58.9314 56.4031 57.8819C55.3671 56.8371 53.9378 56.1878 52.3545 56.1878H38.8642C37.6385 53.5723 36.9531 50.6458 36.9531 47.5593C36.9531 47.3627 36.9554 47.166 36.9622 46.9694C36.9622 46.9603 36.9622 46.9488 36.9644 46.9397C36.971 46.6402 36.9871 46.3453 37.0097 46.0503C37.2198 42.9634 38.1725 39.9105 39.7441 37.2558C40.1908 36.5009 40.6828 35.7793 41.2168 35.0852C41.4383 34.7971 41.6715 34.5159 41.9112 34.2416C45.5733 30.0188 50.9498 27.3529 56.9436 27.3529C67.9863 27.3529 76.9346 36.3998 76.9346 47.5593Z" fill="url(#paint1_linear_478_18105)" fill-opacity="0.5" stroke="#2AF895" stroke-width="1.0465" stroke-miterlimit="10" stroke-linecap="round" stroke-linejoin="round"/>
<path d="M0.953125 70.2988H8.85536V38.4684H0.953125V70.2988Z" fill="#11452C" stroke="#2AF895" stroke-width="1.0465" stroke-miterlimit="10" stroke-linecap="round" stroke-linejoin="round"/>
<path d="M25.7103 67.7637H52.3522C52.9063 67.7637 53.4426 67.6859 53.947 67.5373C54.1936 67.4687 54.4311 67.3796 54.6618 67.2767C56.686 66.385 58.0795 64.3457 58.0795 61.977C58.0795 60.3766 57.4372 58.9317 56.4012 57.8823C55.3652 56.8374 53.9355 56.1881 52.3522 56.1881H35.6075C33.0877 56.1881 31.0475 54.1259 31.0475 51.5789C31.0475 50.3055 31.5564 49.1532 32.382 48.3187C33.2053 47.4865 34.3476 46.9698 35.6075 46.9698H36.9601C37.0981 42.0405 38.9822 37.557 42.0109 34.123L39.0863 31.9167C36.5394 29.994 33.1329 29.7059 30.3078 31.1714L15.5534 40.9019C14.3795 41.5101 13.0766 41.8279 11.7556 41.8279H8.86719V67.7637H15.2347" stroke="#2AF895" stroke-width="1.0465" stroke-miterlimit="10" stroke-linecap="round" stroke-linejoin="round"/>
<path d="M59.2984 41.2937L59.2991 41.2943C59.8159 41.7497 60.1369 42.3226 60.2639 43.0234C60.3243 43.3566 60.6071 43.6398 60.978 43.6398C61.3717 43.6398 61.7175 43.3027 61.6528 42.878C61.5582 42.2562 61.3474 41.6886 61.0194 41.1783C60.6082 40.5336 60.0513 40.0283 59.354 39.6637C58.7914 39.3655 58.1639 39.1894 57.4751 39.1312V36.8726C57.4751 36.539 57.2047 36.2686 56.8711 36.2686C56.5375 36.2686 56.2671 36.539 56.2671 36.8726V39.1468C55.6408 39.2166 55.0598 39.385 54.5263 39.6542L54.5257 39.6546C53.8096 40.0185 53.2377 40.5233 52.8161 41.1685C52.3906 41.8148 52.1804 42.5543 52.1804 43.3782C52.1804 44.3646 52.499 45.2035 53.1423 45.8761L53.143 45.8768C53.78 46.5375 54.6865 47.0454 55.8425 47.413L55.8432 47.4132L56.2671 47.5468V53.8037C55.8046 53.7566 55.3864 53.6493 55.0106 53.4842C54.489 53.2551 54.0771 52.9333 53.7676 52.5204C53.5344 52.2007 53.3772 51.8348 53.2973 51.4189C53.2325 51.082 52.9461 50.7909 52.5659 50.7909C52.1617 50.7909 51.8057 51.1405 51.8814 51.5774C51.9867 52.1861 52.207 52.7399 52.543 53.2359L52.5436 53.2368C52.9714 53.863 53.5517 54.3496 54.2769 54.6976C54.9148 55.0036 55.5482 55.1528 56.2671 55.2003V57.44C56.2671 57.7736 56.5375 58.044 56.8711 58.044C57.2047 58.044 57.4751 57.7736 57.4751 57.44V55.1907C58.2219 55.1266 58.8948 54.9485 59.4901 54.6515L59.4907 54.6512C60.2541 54.2677 60.8497 53.7396 61.268 53.0653C61.6911 52.3911 61.9006 51.6291 61.9006 50.7869C61.9006 50.2104 61.7988 49.6901 61.5877 49.232C61.3847 48.7816 61.0979 48.3889 60.7287 48.0555C60.3696 47.7221 59.9486 47.438 59.4678 47.2021C58.9983 46.9693 58.4872 46.7654 57.9351 46.5897L57.9328 46.589L57.4751 46.448V40.5188C58.2115 40.6031 58.8151 40.8647 59.2984 41.2937ZM55.1768 40.8675C55.5064 40.7041 55.8693 40.5927 56.2671 40.535V46.0749C55.875 45.9473 55.5169 45.8017 55.1922 45.6385C54.849 45.4661 54.5569 45.268 54.3136 45.0456C54.0742 44.8219 53.8904 44.5717 53.7597 44.2946C53.636 44.018 53.5718 43.7041 53.5718 43.3486C53.5718 42.7908 53.7141 42.3058 53.9939 41.8848C54.2769 41.459 54.6685 41.1195 55.1768 40.8675ZM57.4751 53.795V47.9272L57.5301 47.9445L57.5306 47.9447C58.2091 48.157 58.7681 48.3956 59.2119 48.6581L59.2129 48.6587C59.6551 48.9176 59.9765 49.2176 60.1898 49.5543C60.3987 49.8841 60.5092 50.2885 60.5092 50.7795C60.5092 51.3922 60.3547 51.9182 60.0526 52.3676C59.7474 52.8215 59.3222 53.1804 58.7681 53.4426C58.3831 53.6214 57.9528 53.7397 57.4751 53.795Z" fill="#2AF895" stroke="#2AF895" stroke-width="0.523251"/>
<rect x="93.6797" y="9.5" width="11.9019" height="4.79602" rx="2.39801" fill="#16171A" stroke="#44494F"/>
<path d="M104.555 37.9961C104.857 37.9961 105.102 38.2408 105.102 38.5426L105.102 77.5047C105.102 77.8065 104.857 78.0512 104.555 78.0512L99.0025 78.0512C98.7007 78.0512 98.456 77.8065 98.456 77.5047L98.456 38.5426C98.456 38.2408 98.7007 37.9961 99.0025 37.9961L104.555 37.9961Z" fill="#16171A" stroke="#44494F"/>
<path d="M94.5238 53.9355C94.8256 53.9355 95.0703 54.1802 95.0703 54.482L95.0703 77.5051C95.0703 77.8069 94.8256 78.0516 94.5238 78.0516L89.4491 78.0516C89.1473 78.0516 88.9026 77.8069 88.9026 77.5051L88.9026 54.482C88.9026 54.1802 89.1473 53.9355 89.4491 53.9355L94.5238 53.9355Z" fill="#16171A" stroke="#44494F"/>
<rect x="85.5117" y="68.4258" width="9.62603" height="6.16772" rx="0.546503" transform="rotate(90 85.5117 68.4258)" fill="#16171A" stroke="#44494F"/>
<rect x="86.0312" y="9.5" width="4.73418" height="4.79602" rx="2.36709" fill="#16171A" stroke="#44494F"/>
<rect x="78.3906" y="9.5" width="4.73418" height="4.79602" rx="2.36709" fill="#16171A" stroke="#44494F"/>
<defs>
<linearGradient id="paint0_linear_478_18105" x1="66.5961" y1="92.2597" x2="66.5961" y2="-1.90694" gradientUnits="userSpaceOnUse">
<stop stop-color="#16171A"/>
<stop offset="1" stop-color="#2D3135"/>
</linearGradient>
<linearGradient id="paint1_linear_478_18105" x1="71.9361" y1="33.6685" x2="42.1338" y2="62.6531" gradientUnits="userSpaceOnUse">
<stop stop-color="#06AA53"/>
<stop offset="1" stop-color="#024421"/>
</linearGradient>
</defs>
</svg>
