<svg width="153" height="170" viewBox="0 0 153 170" fill="none" xmlns="http://www.w3.org/2000/svg">
<path d="M33.8359 6.40575V128.078C33.8359 129.551 34.6459 130.905 35.9441 131.602L90.8074 161.052C91.3891 161.364 92.039 161.528 92.6992 161.528H104.784C106.994 161.528 108.784 159.737 108.784 157.528V6.40576C108.784 4.19662 106.994 2.40576 104.784 2.40576H37.8359C35.6268 2.40576 33.8359 4.19661 33.8359 6.40575Z" fill="url(#paint0_linear_305_8552)"/>
<rect x="33.6289" y="96.2266" width="75.2595" height="7.21698" fill="#41484C" fill-opacity="0.5"/>
<rect x="33.6289" y="12.0283" width="75.2595" height="7.21698" fill="#199258" fill-opacity="0.3"/>
<rect x="33.6289" y="40.0945" width="75.2595" height="44.9057" fill="url(#paint1_linear_305_8552)" fill-opacity="0.5"/>
<rect x="33.6289" y="25.6604" width="75.2595" height="7.21698" fill="#41484C"/>
<rect x="33.6289" y="32.8774" width="75.2595" height="7.21698" fill="#2AF895"/>
<rect x="33.6289" y="77.7832" width="75.2595" height="7.21698" fill="#11452C"/>
<path d="M52.6538 142.05C52.6538 145.077 44.6173 147.559 34.7125 147.559C24.8077 147.559 16.7456 145.077 16.7456 142.05C16.7456 139.022 24.7821 136.54 34.7125 136.54C44.6429 136.54 52.6538 139.022 52.6538 142.05Z" fill="url(#paint2_linear_305_8552)"/>
<path d="M55.3671 143.017V151.306C55.3671 155.326 46.1277 158.552 34.7128 158.552C23.298 158.552 14.0586 155.326 14.0586 151.306V143.017C14.0586 147.013 23.298 150.264 34.7128 150.264C46.1277 150.264 55.3671 147.013 55.3671 143.017Z" fill="url(#paint3_linear_305_8552)"/>
<path d="M55.3671 153.664V161.952C55.3671 165.972 46.1277 169.198 34.7128 169.198C23.298 169.198 14.0586 165.972 14.0586 161.952V153.664C14.0586 157.659 23.298 160.91 34.7128 160.91C46.1277 160.91 55.3671 157.659 55.3671 153.664Z" fill="url(#paint4_linear_305_8552)"/>
<path d="M81.8822 120.385C81.8822 123.413 73.8457 125.894 63.9409 125.894C54.0361 125.894 45.974 123.413 45.974 120.385C45.974 117.358 54.0105 114.876 63.9409 114.876C73.8713 114.876 81.8822 117.358 81.8822 120.385Z" fill="url(#paint5_linear_305_8552)"/>
<path d="M84.5949 121.378V129.667C84.5949 133.687 75.3555 136.913 63.9406 136.913C52.5258 136.913 43.2864 133.687 43.2864 129.667V121.378C43.2864 125.373 52.5258 128.624 63.9406 128.624C75.3555 128.624 84.5949 125.373 84.5949 121.378Z" fill="url(#paint6_linear_305_8552)"/>
<path d="M84.5951 140.288C84.5951 144.308 75.3557 147.534 63.9409 147.534C62.3285 147.534 60.7928 147.46 59.3084 147.335V144.68C59.3084 142.347 58.3614 140.387 56.749 138.749C58.9757 139.047 61.4071 139.221 63.9409 139.221C75.3301 139.221 84.5951 135.97 84.5951 131.974V140.288Z" fill="url(#paint7_linear_305_8552)"/>
<path d="M84.5952 142.844V151.107C84.5952 155.128 75.3558 158.354 63.9409 158.354C62.3285 158.354 60.7929 158.279 59.3084 158.155V149.891C60.7929 150.016 62.3541 150.09 63.9409 150.09C75.3302 150.09 84.5952 146.839 84.5952 142.844Z" fill="url(#paint8_linear_305_8552)"/>
<path d="M84.595 153.664V161.952C84.595 165.972 75.3557 169.198 63.9408 169.198C60.9719 169.198 58.1822 168.975 55.6484 168.578C57.9007 166.89 59.2827 164.731 59.2827 161.977V160.711C60.7672 160.835 62.3284 160.91 63.9152 160.91C75.3045 160.91 84.5694 157.659 84.5694 153.664H84.595Z" fill="url(#paint9_linear_305_8552)"/>
<path d="M120.054 94.6262L120.054 83.3963M120.054 94.6262L122.121 92.618M120.054 94.6262L117.986 92.618M120.054 83.3963L117.986 85.401M120.054 83.3963L122.121 85.401" stroke="#44494F" stroke-linecap="round" stroke-linejoin="round"/>
<path d="M120.054 78.9895L120.054 20.8492M120.054 78.9895L122.121 76.9813M120.054 78.9895L117.986 76.9813M120.054 20.8492L117.986 22.8539M120.054 20.8492L122.121 22.8539" stroke="#44494F" stroke-linecap="round" stroke-linejoin="round"/>
<rect x="112.197" y="96.2266" width="14.8865" height="7.21698" fill="#41484C"/>
<path d="M117.896 101.84C117.287 101.84 116.672 101.657 116.332 101.391L116.634 100.716C116.958 100.954 117.441 101.12 117.901 101.12C118.428 101.12 118.642 100.943 118.642 100.704C118.642 99.979 116.409 100.477 116.409 99.0376C116.409 98.3786 116.936 97.8303 118.028 97.8303C118.511 97.8303 119.004 97.9466 119.361 98.1737L119.087 98.8548C118.73 98.6499 118.362 98.5502 118.022 98.5502C117.495 98.5502 117.292 98.7496 117.292 98.9933C117.292 99.7077 119.526 99.2148 119.526 100.638C119.526 101.286 118.993 101.84 117.896 101.84Z" fill="#08090A"/>
<path d="M120.133 101.773V97.8968H121.022V101.042H122.948V101.773H120.133Z" fill="#08090A"/>
<path d="M33.8359 130.47V6.40575C33.8359 4.19661 35.6268 2.40576 37.8359 2.40576L104.784 2.40576C106.994 2.40576 108.784 4.19662 108.784 6.40576V157.528C108.784 159.737 106.994 161.528 104.784 161.528H90.8665" stroke="#44494F" stroke-linecap="round" stroke-linejoin="round"/>
<rect x="112.197" y="12.0283" width="14.8865" height="7.21698" fill="#2AF895"/>
<path d="M117.196 17.6415V14.3881H115.918V13.6321H119.399V14.3881H118.121V17.6415H117.196Z" fill="#08090A"/>
<path d="M121.626 13.6321C122.693 13.6321 123.361 14.1877 123.361 15.0869C123.361 15.9805 122.693 16.5361 121.626 16.5361H120.821V17.6415H119.897V13.6321H121.626ZM121.575 15.78C122.14 15.78 122.425 15.5222 122.425 15.0869C122.425 14.6459 122.14 14.3881 121.575 14.3881H120.821V15.78H121.575Z" fill="#08090A"/>
<line x1="112.697" y1="81.2925" x2="126.584" y2="81.2925" stroke="#44494F" stroke-linecap="round" stroke-dasharray="2 2"/>
<path d="M128.056 91.1652C126.709 91.1652 125.707 90.1948 125.707 88.4836C125.707 86.7724 126.709 85.802 128.056 85.802C129.411 85.802 130.405 86.7724 130.405 88.4836C130.405 90.1948 129.411 91.1652 128.056 91.1652ZM128.056 90.1503C128.69 90.1503 129.129 89.6614 129.129 88.4836C129.129 87.3058 128.69 86.8169 128.056 86.8169C127.43 86.8169 126.991 87.3058 126.991 88.4836C126.991 89.6614 127.43 90.1503 128.056 90.1503Z" fill="#676C72"/>
<path d="M131.65 89.6985C132.089 89.6985 132.402 89.9874 132.402 90.4096C132.402 90.6022 132.371 90.743 132.19 91.1504L131.744 92.2171H130.969L131.313 91.0393C131.055 90.943 130.891 90.7133 130.891 90.4096C130.891 89.98 131.219 89.6985 131.65 89.6985Z" fill="#676C72"/>
<path d="M134.85 87.8391C136.471 87.8391 137.113 88.528 137.113 89.4466C137.113 90.3652 136.401 91.1652 134.835 91.1652C134.075 91.1652 133.277 90.9652 132.744 90.6096L133.245 89.6911C133.66 89.9874 134.232 90.1577 134.803 90.1577C135.438 90.1577 135.829 89.9059 135.829 89.4836C135.829 89.0762 135.547 88.8095 134.553 88.8095H133.151L133.433 85.8909H136.777V86.8539H134.49L134.404 87.8391H134.85Z" fill="#676C72"/>
<path d="M138.82 88.691C138.021 88.691 137.458 88.1354 137.458 87.2613C137.458 86.3872 138.021 85.8316 138.82 85.8316C139.619 85.8316 140.175 86.3798 140.175 87.2613C140.175 88.1428 139.619 88.691 138.82 88.691ZM138.342 91.0763L142.085 85.8909H143.017L139.274 91.0763H138.342ZM138.82 88.0836C139.164 88.0836 139.392 87.8169 139.392 87.2613C139.392 86.7057 139.164 86.4391 138.82 86.4391C138.483 86.4391 138.248 86.7132 138.248 87.2613C138.248 87.8095 138.483 88.0836 138.82 88.0836ZM142.539 91.1356C141.748 91.1356 141.185 90.58 141.185 89.7059C141.185 88.8318 141.748 88.2762 142.539 88.2762C143.338 88.2762 143.902 88.8318 143.902 89.7059C143.902 90.58 143.338 91.1356 142.539 91.1356ZM142.539 90.5281C142.884 90.5281 143.111 90.254 143.111 89.7059C143.111 89.1577 142.884 88.8836 142.539 88.8836C142.203 88.8836 141.968 89.1503 141.968 89.7059C141.968 90.2615 142.203 90.5281 142.539 90.5281Z" fill="#676C72"/>
<path d="M128.672 49.5958C129.69 49.7517 130.207 50.3598 130.207 51.1628C130.207 52.0828 129.472 52.9247 127.864 52.9247C127.072 52.9247 126.256 52.7142 125.707 52.34L126.216 51.3733C126.644 51.6851 127.242 51.8645 127.832 51.8645C128.486 51.8645 128.89 51.6072 128.89 51.1628C128.89 50.7496 128.575 50.4923 127.832 50.4923H127.234V49.6582L128.398 48.3874H125.99V47.3739H129.949V48.1925L128.672 49.5958Z" fill="#676C72"/>
<path d="M132.042 50.3208C131.218 50.3208 130.636 49.7361 130.636 48.8162C130.636 47.8962 131.218 47.3115 132.042 47.3115C132.866 47.3115 133.439 47.8884 133.439 48.8162C133.439 49.7439 132.866 50.3208 132.042 50.3208ZM131.549 52.8312L135.411 47.3739H136.372L132.51 52.8312H131.549ZM132.042 49.6815C132.397 49.6815 132.632 49.4009 132.632 48.8162C132.632 48.2315 132.397 47.9508 132.042 47.9508C131.694 47.9508 131.452 48.2393 131.452 48.8162C131.452 49.3931 131.694 49.6815 132.042 49.6815ZM135.88 52.8935C135.064 52.8935 134.482 52.3088 134.482 51.3889C134.482 50.469 135.064 49.8842 135.88 49.8842C136.704 49.8842 137.285 50.469 137.285 51.3889C137.285 52.3088 136.704 52.8935 135.88 52.8935ZM135.88 52.2543C136.235 52.2543 136.469 51.9658 136.469 51.3889C136.469 50.812 136.235 50.5235 135.88 50.5235C135.532 50.5235 135.29 50.8042 135.29 51.3889C135.29 51.9736 135.532 52.2543 135.88 52.2543Z" fill="#676C72"/>
<defs>
<linearGradient id="paint0_linear_305_8552" x1="53.4995" y1="138.5" x2="113.32" y2="0.738399" gradientUnits="userSpaceOnUse">
<stop stop-color="#040606"/>
<stop offset="0.105475" stop-color="#08090A"/>
<stop offset="1" stop-color="#2D3135"/>
</linearGradient>
<linearGradient id="paint1_linear_305_8552" x1="72.7329" y1="40.0945" x2="72.7329" y2="85.0001" gradientUnits="userSpaceOnUse">
<stop stop-color="#06AA53"/>
<stop offset="1" stop-color="#024421"/>
</linearGradient>
<linearGradient id="paint2_linear_305_8552" x1="50.0157" y1="169.99" x2="50.0157" y2="114.876" gradientUnits="userSpaceOnUse">
<stop stop-color="#16171A"/>
<stop offset="1" stop-color="#2D3135"/>
</linearGradient>
<linearGradient id="paint3_linear_305_8552" x1="50.0157" y1="169.99" x2="50.0157" y2="114.876" gradientUnits="userSpaceOnUse">
<stop stop-color="#16171A"/>
<stop offset="1" stop-color="#2D3135"/>
</linearGradient>
<linearGradient id="paint4_linear_305_8552" x1="50.0157" y1="169.99" x2="50.0157" y2="114.876" gradientUnits="userSpaceOnUse">
<stop stop-color="#16171A"/>
<stop offset="1" stop-color="#2D3135"/>
</linearGradient>
<linearGradient id="paint5_linear_305_8552" x1="50.0157" y1="169.99" x2="50.0157" y2="114.876" gradientUnits="userSpaceOnUse">
<stop stop-color="#16171A"/>
<stop offset="1" stop-color="#2D3135"/>
</linearGradient>
<linearGradient id="paint6_linear_305_8552" x1="50.0157" y1="169.99" x2="50.0157" y2="114.876" gradientUnits="userSpaceOnUse">
<stop stop-color="#16171A"/>
<stop offset="1" stop-color="#2D3135"/>
</linearGradient>
<linearGradient id="paint7_linear_305_8552" x1="50.0157" y1="169.99" x2="50.0157" y2="114.876" gradientUnits="userSpaceOnUse">
<stop stop-color="#16171A"/>
<stop offset="1" stop-color="#2D3135"/>
</linearGradient>
<linearGradient id="paint8_linear_305_8552" x1="50.0157" y1="169.99" x2="50.0157" y2="114.876" gradientUnits="userSpaceOnUse">
<stop stop-color="#16171A"/>
<stop offset="1" stop-color="#2D3135"/>
</linearGradient>
<linearGradient id="paint9_linear_305_8552" x1="50.0157" y1="169.99" x2="50.0157" y2="114.876" gradientUnits="userSpaceOnUse">
<stop stop-color="#16171A"/>
<stop offset="1" stop-color="#2D3135"/>
</linearGradient>
</defs>
</svg>
