<svg width="143" height="151" viewBox="0 0 143 151" fill="none" xmlns="http://www.w3.org/2000/svg">
<path d="M123.781 142.546V143.046H124.281H128.009C129.578 143.046 131.003 144.622 131.003 146.773C131.003 148.924 129.578 150.5 128.009 150.5H15.7115C14.1424 150.5 12.7168 148.924 12.7168 146.773C12.7168 144.622 14.1424 143.046 15.7115 143.046H19.4392H19.9392V142.546V112.958C19.9392 110.807 21.3648 109.231 22.9339 109.231H36.9128C38.4819 109.231 39.9075 110.807 39.9075 112.958V142.546V143.046H40.4075H47.397H47.897V142.546V102.813C47.897 100.662 49.3226 99.0866 50.8917 99.0866H64.8706C66.4397 99.0866 67.8653 100.662 67.8653 102.813V142.546V143.046H68.3653H75.3547H75.8547V142.546V87.315C75.8547 85.1635 77.2804 83.5881 78.8494 83.5881H92.8283C94.3974 83.5881 95.8231 85.1635 95.8231 87.315V142.546V143.046H96.3231H103.312H103.812V142.546V59.1358C103.812 56.9844 105.238 55.4089 106.807 55.4089H120.786C122.355 55.4089 123.781 56.9844 123.781 59.1358V142.546Z" fill="url(#paint0_linear_305_8532)" stroke="#44494F"/>
<path d="M61.082 70.0813C84.6462 59.8013 107.556 41.9827 124.247 10.1147M124.247 10.1147L127.193 29.9894M124.247 10.1147L105.919 16.9681" stroke="url(#paint1_linear_305_8532)" stroke-width="10" stroke-linecap="round" stroke-linejoin="round"/>
<path d="M70.855 38.3194C73.959 37.7599 76.606 37.6945 78.558 38.1381C79.0003 40.2464 78.931 43.0127 78.3768 46.1981C77.8109 49.4502 76.751 53.0749 75.2852 56.7699C72.3496 64.17 67.8238 71.7577 62.5068 77.1326L62.5031 77.1365C60.6217 79.059 58.5791 80.8112 56.3987 82.3732L55.9366 82.7043L55.9847 83.2707C56.2636 86.5571 56.0063 89.7523 54.854 92.4387C53.2145 96.2456 50.2294 98.7331 47.1176 100.358C44.0013 101.986 40.8146 102.718 38.8933 103.031L38.8852 103.032C38.8227 103.043 38.7587 103.039 38.6977 103.02C38.6366 103.002 38.5793 102.968 38.5307 102.922C38.482 102.875 38.4435 102.817 38.4192 102.75C38.3951 102.684 38.3862 102.612 38.3936 102.541C38.3936 102.541 38.3937 102.54 38.3937 102.54L39.809 89.4515L39.9275 88.3552L38.8249 88.344C37.8921 88.3346 36.9603 88.2771 36.0332 88.1718L36.0332 88.1717L36.0192 88.1703C35.5841 88.127 35.1748 87.9306 34.8627 87.611L34.8591 87.6074L29.8636 82.5438L29.8608 82.5411C29.5461 82.2246 29.3482 81.8035 29.305 81.35L29.3043 81.3427L29.3035 81.3355C29.1992 80.3866 29.1425 79.4329 29.1336 78.4781L29.1233 77.3702L28.0223 77.4936L15.123 78.9391C15.0603 78.9461 14.9967 78.9383 14.9367 78.9158C14.8767 78.8933 14.8212 78.8564 14.7752 78.8068C14.7291 78.7572 14.694 78.6961 14.6737 78.628C14.6534 78.5599 14.6489 78.4875 14.6608 78.4169L14.6617 78.4112C14.9786 76.4503 15.704 73.2098 17.3103 70.0398C18.915 66.8728 21.3646 63.8405 25.1051 62.1673C27.7393 61.0011 30.8906 60.7465 34.1375 61.0383L34.7162 61.0903L35.0479 60.6133C36.5857 58.4027 38.31 56.3327 40.2013 54.4267L40.204 54.4239C45.5017 49.0437 53.0828 44.4449 60.4266 41.4602C64.0932 39.97 67.6752 38.8926 70.855 38.3194Z" fill="#16171A"/>
<path d="M70.855 38.3194C73.959 37.7599 76.606 37.6945 78.558 38.1381C79.0003 40.2464 78.931 43.0127 78.3768 46.1981C77.8109 49.4502 76.751 53.0749 75.2852 56.7699C72.3496 64.17 67.8238 71.7577 62.5068 77.1326L62.5031 77.1365C60.6217 79.059 58.5791 80.8112 56.3987 82.3732L55.9366 82.7043L55.9847 83.2707C56.2636 86.5571 56.0063 89.7523 54.854 92.4387C53.2145 96.2456 50.2294 98.7331 47.1176 100.358C44.0013 101.986 40.8146 102.718 38.8933 103.031L38.8852 103.032C38.8227 103.043 38.7587 103.039 38.6977 103.02C38.6366 103.002 38.5793 102.968 38.5307 102.922C38.482 102.875 38.4435 102.817 38.4192 102.75C38.3951 102.684 38.3862 102.612 38.3936 102.541C38.3936 102.541 38.3937 102.54 38.3937 102.54L39.809 89.4515L39.9275 88.3552L38.8249 88.344C37.8921 88.3346 36.9603 88.2771 36.0332 88.1718L36.0332 88.1717L36.0192 88.1703C35.5841 88.127 35.1748 87.9306 34.8627 87.611L34.8591 87.6074L29.8636 82.5438L29.8608 82.5411C29.5461 82.2246 29.3482 81.8035 29.305 81.35L29.3043 81.3427L29.3035 81.3355C29.1992 80.3866 29.1425 79.4329 29.1336 78.4781L29.1233 77.3702L28.0223 77.4936L15.123 78.9391C15.0603 78.9461 14.9967 78.9383 14.9367 78.9158C14.8767 78.8933 14.8212 78.8564 14.7752 78.8068C14.7291 78.7572 14.694 78.6961 14.6737 78.628C14.6534 78.5599 14.6489 78.4875 14.6608 78.4169L14.6617 78.4112C14.9786 76.4503 15.704 73.2098 17.3103 70.0398C18.915 66.8728 21.3646 63.8405 25.1051 62.1673C27.7393 61.0011 30.8906 60.7465 34.1375 61.0383L34.7162 61.0903L35.0479 60.6133C36.5857 58.4027 38.31 56.3327 40.2013 54.4267L40.204 54.4239C45.5017 49.0437 53.0828 44.4449 60.4266 41.4602C64.0932 39.97 67.6752 38.8926 70.855 38.3194Z" fill="url(#paint2_linear_305_8532)" fill-opacity="0.5"/>
<path d="M70.855 38.3194C73.959 37.7599 76.606 37.6945 78.558 38.1381C79.0003 40.2464 78.931 43.0127 78.3768 46.1981C77.8109 49.4502 76.751 53.0749 75.2852 56.7699C72.3496 64.17 67.8238 71.7577 62.5068 77.1326L62.5031 77.1365C60.6217 79.059 58.5791 80.8112 56.3987 82.3732L55.9366 82.7043L55.9847 83.2707C56.2636 86.5571 56.0063 89.7523 54.854 92.4387C53.2145 96.2456 50.2294 98.7331 47.1176 100.358C44.0013 101.986 40.8146 102.718 38.8933 103.031L38.8852 103.032C38.8227 103.043 38.7587 103.039 38.6977 103.02C38.6366 103.002 38.5793 102.968 38.5307 102.922C38.482 102.875 38.4435 102.817 38.4192 102.75C38.3951 102.684 38.3862 102.612 38.3936 102.541C38.3936 102.541 38.3937 102.54 38.3937 102.54L39.809 89.4515L39.9275 88.3552L38.8249 88.344C37.8921 88.3346 36.9603 88.2771 36.0332 88.1718L36.0332 88.1717L36.0192 88.1703C35.5841 88.127 35.1748 87.9306 34.8627 87.611L34.8591 87.6074L29.8636 82.5438L29.8608 82.5411C29.5461 82.2246 29.3482 81.8035 29.305 81.35L29.3043 81.3427L29.3035 81.3355C29.1992 80.3866 29.1425 79.4329 29.1336 78.4781L29.1233 77.3702L28.0223 77.4936L15.123 78.9391C15.0603 78.9461 14.9967 78.9383 14.9367 78.9158C14.8767 78.8933 14.8212 78.8564 14.7752 78.8068C14.7291 78.7572 14.694 78.6961 14.6737 78.628C14.6534 78.5599 14.6489 78.4875 14.6608 78.4169L14.6617 78.4112C14.9786 76.4503 15.704 73.2098 17.3103 70.0398C18.915 66.8728 21.3646 63.8405 25.1051 62.1673C27.7393 61.0011 30.8906 60.7465 34.1375 61.0383L34.7162 61.0903L35.0479 60.6133C36.5857 58.4027 38.31 56.3327 40.2013 54.4267L40.204 54.4239C45.5017 49.0437 53.0828 44.4449 60.4266 41.4602C64.0932 39.97 67.6752 38.8926 70.855 38.3194Z" stroke="#2AF895" stroke-width="2" stroke-linecap="round"/>
<circle cx="57.5" cy="59.5" r="6.5" fill="#050506"/>
<path d="M29.9815 94.4748C31.2032 94.2694 32.489 94.0131 33.5047 93.3867C33.168 94.7571 32.4451 96.0194 31.4049 97.027L31.4034 97.0285C30.7079 97.7051 29.433 98.3095 27.7526 98.8092C26.1059 99.2989 24.2039 99.6505 22.3818 99.9004C20.5641 100.15 18.8506 100.295 17.5899 100.377C17.2216 100.401 16.8926 100.42 16.6115 100.434C16.6261 100.169 16.6448 99.8601 16.6686 99.5164C16.7533 98.2929 16.902 96.6302 17.158 94.8665C17.4146 93.0983 17.7753 91.2543 18.2771 89.6589C18.7888 88.0319 19.4066 86.7997 20.0992 86.1258C21.1584 85.0967 22.4944 84.3811 23.9502 84.0575C23.942 84.0728 23.9339 84.0881 23.926 84.1032C23.7699 84.4004 23.6155 84.7496 23.4731 85.1149C23.1899 85.8411 22.9288 86.6962 22.7932 87.4329L22.7929 87.4341C22.0209 91.6577 25.8106 95.1655 29.9791 94.4752L29.9815 94.4748ZM23.7766 87.614C24.0198 86.2932 24.7387 84.4418 25.1861 84.0068C25.2839 83.9136 25.349 83.7928 25.3722 83.6615C25.3953 83.5303 25.3753 83.3953 25.3151 83.2757C25.2548 83.1561 25.1573 83.0581 25.0364 82.9954C24.9156 82.9328 24.7774 82.9087 24.6417 82.9267L23.7766 87.614Z" fill="#024421" fill-opacity="0.5" stroke="#2AF895" stroke-width="2"/>
<defs>
<linearGradient id="paint0_linear_305_8532" x1="73.0249" y1="152.4" x2="73.0249" y2="54.9089" gradientUnits="userSpaceOnUse">
<stop stop-color="#16171A"/>
<stop offset="1" stop-color="#2D3135"/>
</linearGradient>
<linearGradient id="paint1_linear_305_8532" x1="96.8607" y1="71.6506" x2="96.8607" y2="10.1147" gradientUnits="userSpaceOnUse">
<stop stop-color="#16171A"/>
<stop offset="1" stop-color="#2D3135"/>
</linearGradient>
<linearGradient id="paint2_linear_305_8532" x1="79.847" y1="38.7667" x2="26.438" y2="87.7526" gradientUnits="userSpaceOnUse">
<stop stop-color="#06AA53"/>
<stop offset="1" stop-color="#024421"/>
</linearGradient>
</defs>
</svg>
