<svg width="218" height="156" viewBox="0 0 218 156" fill="none" xmlns="http://www.w3.org/2000/svg">
<path d="M38.9518 8.15479H192.071C194.097 8.15479 195.74 9.79729 195.74 11.8234V33.8952V144.177C195.74 146.203 194.097 147.845 192.071 147.845H38.9518C36.9257 147.845 35.2832 146.203 35.2832 144.177V33.8952V11.8234C35.2832 9.79729 36.9257 8.15479 38.9518 8.15479Z" fill="url(#paint0_linear_305_8585)"/>
<path d="M35.2832 33.8952V144.177C35.2832 146.203 36.9257 147.845 38.9518 147.845H192.071C194.097 147.845 195.74 146.203 195.74 144.177V33.8952M35.2832 33.8952V11.8234C35.2832 9.79729 36.9257 8.15479 38.9518 8.15479H192.071C194.097 8.15479 195.74 9.79729 195.74 11.8234V33.8952M35.2832 33.8952H195.74" stroke="#44494F" stroke-width="0.91716"/>
<path d="M135.253 83.3632C135.253 102.924 119.518 118.781 100.108 118.781C98.3141 118.781 96.5529 118.645 94.831 118.384C94.8346 118.384 94.8385 118.38 94.8429 118.38C95.2764 118.26 95.6939 118.104 96.0995 117.923C99.6582 116.361 102.108 112.786 102.108 108.634C102.108 105.829 100.979 103.296 99.1571 101.457C97.3358 99.6254 94.823 98.4873 92.0394 98.4873H68.3227C66.1678 93.9027 64.9629 88.7732 64.9629 83.3632C64.9629 83.0185 64.9669 82.6739 64.9788 82.3292C64.9788 82.3132 64.9788 82.2932 64.9828 82.2771C64.9943 81.7522 65.0225 81.2352 65.0623 80.7182C65.4317 75.3074 67.1067 69.9562 69.8696 65.3032C70.655 63.9799 71.5199 62.7152 72.4587 61.4985C72.8481 60.9936 73.258 60.5006 73.6796 60.0197C80.1176 52.618 89.57 47.9453 100.108 47.9453C119.521 47.9453 135.253 63.8028 135.253 83.3632Z" fill="url(#paint1_linear_305_8585)" fill-opacity="0.5" stroke="#2AF895" stroke-width="1.83432" stroke-miterlimit="10" stroke-linecap="round" stroke-linejoin="round"/>
<path d="M1.67969 123.221H15.5723V67.4285H1.67969V123.221Z" fill="#11452C" stroke="#2AF895" stroke-width="1.83432" stroke-miterlimit="10" stroke-linecap="round" stroke-linejoin="round"/>
<path d="M45.2011 118.778H92.0392C93.0135 118.778 93.9563 118.642 94.8431 118.382C95.2765 118.261 95.6941 118.105 96.0997 117.925C99.6583 116.362 102.108 112.787 102.108 108.635C102.108 105.83 100.979 103.298 99.1577 101.458C97.3364 99.6267 94.8228 98.4886 92.0392 98.4886H62.601C58.1711 98.4886 54.5842 94.8739 54.5842 90.4096C54.5842 88.1774 55.4789 86.1577 56.9304 84.6949C58.3779 83.2362 60.386 82.3306 62.601 82.3306H64.979C65.2216 73.6905 68.534 65.8319 73.8587 59.8127L68.717 55.9455C64.2393 52.5752 58.2506 52.0703 53.2839 54.6391L27.3446 71.6948C25.2808 72.7608 22.9903 73.3178 20.6679 73.3178H15.5898V118.778H26.7843" stroke="#2AF895" stroke-width="1.83432" stroke-miterlimit="10" stroke-linecap="round" stroke-linejoin="round"/>
<path d="M104.258 72.3816L104.257 72.3805C103.406 71.6281 102.344 71.1693 101.048 71.0217V81.4143M104.258 72.3816L104.35 83.1477M104.258 72.3816C105.166 73.1796 105.73 74.1832 105.954 75.4104C106.06 75.9952 106.557 76.4924 107.208 76.4924C107.899 76.4924 108.507 75.9002 108.393 75.1543C108.226 74.0652 107.855 73.0711 107.279 72.1774C106.556 71.0473 105.577 70.1618 104.352 69.5227C103.363 69.0001 102.259 68.6914 101.048 68.5896M104.258 72.3816L101.048 68.5896M101.048 81.4143L101.854 81.6616L101.858 81.6629C102.828 81.9708 103.727 82.3283 104.552 82.7361M101.048 81.4143L100.59 81.2735V81.7532L101.048 81.894V81.4143ZM104.552 82.7361C104.552 82.7363 104.553 82.7364 104.553 82.7366L104.35 83.1477M104.552 82.7361C104.552 82.736 104.551 82.7359 104.551 82.7357L104.35 83.1477M104.552 82.7361C105.397 83.1496 106.137 83.6475 106.768 84.2317M104.35 83.1477C105.16 83.5443 105.863 84.0186 106.459 84.5704M106.768 84.2317C106.767 84.231 106.767 84.2302 106.766 84.2295L106.459 84.5704M106.768 84.2317C107.417 84.8161 107.922 85.5045 108.278 86.2941C108.65 87.0971 108.829 88.0092 108.829 89.0198C108.829 90.4964 108.46 91.8323 107.716 93.0142C106.981 94.196 105.934 95.1216 104.592 95.7935L104.591 95.7941C103.545 96.3146 102.361 96.6268 101.048 96.739V100.68C101.048 101.265 100.573 101.74 99.9878 101.74C99.4022 101.74 98.9274 101.265 98.9274 100.68V96.7558C97.6633 96.6727 96.5497 96.4112 95.4282 95.8748C94.1535 95.2651 93.1335 94.4122 92.3813 93.3146L92.3803 93.3131C91.7901 92.4445 91.4028 91.4745 91.2174 90.4086C91.0839 89.641 91.7094 89.0269 92.4192 89.0269C93.0869 89.0269 93.5896 89.538 93.7038 90.1292C93.8444 90.8574 94.1206 91.498 94.5302 92.0579C95.0743 92.7817 95.7985 93.3459 96.7159 93.7476C97.3772 94.0373 98.1133 94.2255 98.9274 94.3079V83.3409L98.1815 83.1066L98.1802 83.1062C96.1484 82.462 94.5548 81.5719 93.4351 80.4139L93.4338 80.4126C92.3029 79.2338 91.7426 77.7633 91.7426 76.0338C91.7426 74.5894 92.1123 73.293 92.8605 72.1601C93.6017 71.0291 94.607 70.1445 95.8655 69.5068L95.8667 69.5062C96.8046 69.0343 97.8261 68.7392 98.9274 68.6169V64.6326C98.9274 64.0469 99.4022 63.5722 99.9878 63.5722C100.573 63.5722 101.048 64.0469 101.048 64.6326V68.5896M106.768 84.2317C106.769 84.2325 106.77 84.2333 106.771 84.2341L106.459 84.5704M106.459 84.5704L101.048 68.5896M103.324 93.6746C102.647 93.9883 101.889 94.1958 101.048 94.2927V84.0068L101.147 84.0379L101.148 84.0381C102.341 84.4103 103.324 84.8287 104.104 85.2888L104.106 85.2898C104.884 85.7438 105.449 86.2698 105.824 86.86C106.191 87.4378 106.385 88.1465 106.385 89.0069C106.385 90.0805 106.114 91.0024 105.583 91.7901C105.046 92.5856 104.299 93.2148 103.324 93.6746ZM98.9274 71.05V80.7612C98.2371 80.5373 97.6067 80.2818 97.0351 79.9956C96.4316 79.6933 95.918 79.3459 95.4901 78.956C95.0691 78.5638 94.7461 78.1253 94.5163 77.6397C94.299 77.155 94.1861 76.6049 94.1861 75.9821C94.1861 75.0046 94.4362 74.1547 94.9281 73.4167C95.4256 72.6703 96.1142 72.0751 97.0081 71.6334C97.5882 71.3467 98.227 71.1511 98.9274 71.05Z" fill="#2AF895" stroke="#2AF895" stroke-width="0.91716"/>
<rect x="164.275" y="16.2327" width="21.7652" height="9.24215" rx="4.62107" fill="#16171A" stroke="#44494F" stroke-width="0.91716"/>
<path d="M183.826 66.1827C184.586 66.1827 185.202 66.7986 185.202 67.5584L185.202 135.852C185.202 136.611 184.586 137.227 183.826 137.227L174.053 137.227C173.293 137.227 172.677 136.611 172.677 135.852L172.677 67.5584C172.677 66.7986 173.293 66.1827 174.053 66.1827L183.826 66.1827Z" fill="#16171A" stroke="#44494F" stroke-width="0.91716"/>
<path d="M166.183 94.1207C166.943 94.1207 167.559 94.7366 167.559 95.4964L167.559 135.851C167.559 136.611 166.943 137.227 166.183 137.227L157.251 137.227C156.491 137.227 155.875 136.611 155.875 135.851L155.875 95.4964C155.875 94.7366 156.491 94.1207 157.251 94.1207L166.183 94.1207Z" fill="#16171A" stroke="#44494F" stroke-width="0.91716"/>
<rect x="150.756" y="119.519" width="17.7082" height="11.6842" rx="1.37574" transform="rotate(90 150.756 119.519)" fill="#16171A" stroke="#44494F" stroke-width="0.91716"/>
<rect x="150.834" y="16.2327" width="9.16389" height="9.24215" rx="4.58194" fill="#16171A" stroke="#44494F" stroke-width="0.91716"/>
<rect x="137.392" y="16.2327" width="9.16389" height="9.24215" rx="4.58194" fill="#16171A" stroke="#44494F" stroke-width="0.91716"/>
<defs>
<linearGradient id="paint0_linear_305_8585" x1="117.079" y1="161.714" x2="117.079" y2="-3.34238" gradientUnits="userSpaceOnUse">
<stop stop-color="#16171A"/>
<stop offset="1" stop-color="#2D3135"/>
</linearGradient>
<linearGradient id="paint1_linear_305_8585" x1="126.465" y1="59.0153" x2="74.2234" y2="109.976" gradientUnits="userSpaceOnUse">
<stop stop-color="#06AA53"/>
<stop offset="1" stop-color="#024421"/>
</linearGradient>
</defs>
</svg>
