<svg width="131" height="25" viewBox="0 0 131 25" fill="none" xmlns="http://www.w3.org/2000/svg">
<g clip-path="url(#clip0_478_14897)">
<path d="M5.94284 12.5002L2.98429 15.3079L0 12.5002L2.98429 9.66821L5.94284 12.5002ZM13.172 5.6399L18.2659 10.4739L21.2502 7.64185L13.172 0.000244141L5.09386 7.66626L8.07817 10.4983L13.172 5.6399ZM23.3598 9.66821L20.4012 12.5002L23.3855 15.3323L26.3698 12.5002L23.3598 9.66821ZM13.172 19.3606L8.07817 14.5022L5.09386 17.3342L13.172 25.0002L21.2502 17.3342L18.2659 14.5022L13.172 19.3606ZM13.172 15.3079L16.1563 12.4758L13.172 9.66821L10.1878 12.5002L13.172 15.3079ZM44.5584 15.6008V15.552C44.5584 13.721 43.5295 12.7932 41.8573 12.1829C42.8862 11.6457 43.7611 10.7668 43.7611 9.22876V9.17994C43.7611 7.03148 41.9346 5.6399 39.0014 5.6399H32.2869V19.3362H39.1561C42.4233 19.3606 44.5584 18.0911 44.5584 15.6008ZM40.5967 9.74145C40.5967 10.7668 39.7218 11.1819 38.307 11.1819H35.3742V8.2766H38.5127C39.8505 8.2766 40.5967 8.78932 40.5967 9.69262V9.74145ZM41.3941 15.2102C41.3941 16.2356 40.5453 16.6995 39.1561 16.6995H35.3742V13.6965H39.0529C40.6737 13.6965 41.3941 14.2581 41.3941 15.1858V15.2102ZM51.2216 19.3606V5.6399H48.0317V19.3362H51.2216V19.3606ZM68.304 19.3606V5.6399H65.1656V14.0872L58.3995 5.6399H55.4667V19.3362H58.6052V10.6448L65.6029 19.3606H68.304ZM85.9011 19.3606L79.701 5.56666H76.7683L70.5682 19.3606H73.8355L75.1474 16.2844H81.2446L82.5568 19.3606H85.9011ZM80.1128 13.6233H76.2795L78.2089 9.17994L80.1128 13.6233ZM101.054 19.3606V5.6399H97.9156V14.0872L91.1495 5.6399H88.2167V19.3362H91.3552V10.6448L98.3529 19.3606H101.054ZM117.442 17.1389L115.41 15.2102C114.278 16.1868 113.274 16.8215 111.602 16.8215C109.132 16.8215 107.409 14.8684 107.409 12.5247V12.4514C107.409 10.1077 109.158 8.17895 111.602 8.17895C113.043 8.17895 114.175 8.7649 115.307 9.71703L117.339 7.49537C116.001 6.25024 114.38 5.37132 111.654 5.37132C107.229 5.37132 104.116 8.56956 104.116 12.4514V12.5002C104.116 16.4309 107.28 19.5559 111.525 19.5559C114.303 19.5803 115.95 18.6526 117.442 17.1389ZM131 19.3362V16.6751H123.153V13.7942H129.971V11.1086H123.153V8.32543H130.897V5.6399H120.015V19.3362H131Z" fill="#F0B90B"/>
</g>
<defs>
<clipPath id="clip0_478_14897">
<rect width="131" height="25" fill="white"/>
</clipPath>
</defs>
</svg>
