<svg aria-hidden="true" style="position: absolute; width: 0; height: 0; overflow: hidden;" version="1.1" xmlns="http://www.w3.org/2000/svg" xmlns:xlink="http://www.w3.org/1999/xlink">
<defs>
<symbol id="icon-arrow-right" viewBox="0 0 32 32">
<path d="M32 16l-7.111-4.106v8.211l7.111-4.106zM0 16.711h25.6v-1.422h-25.6v1.422z"></path>
</symbol>
<symbol id="icon-arrow-left" viewBox="0 0 32 32">
<path d="M0 16l7.111 4.106v-8.211l-7.111 4.106zM32 15.289h-25.6v1.422h25.6v-1.422z"></path>
</symbol>
<symbol id="icon-play" viewBox="0 0 32 32">
<path d="M5.161 32v-32l21.677 16-21.677 16z"></path>
</symbol>
<symbol id="icon-ig-v1" viewBox="0 0 32 32">
<path d="M6.858 0c-1.818 0-3.562 0.722-4.848 2.008s-2.009 3.029-2.010 4.847v18.287c0 1.819 0.723 3.563 2.009 4.849s3.030 2.009 4.849 2.009h18.287c1.818-0.001 3.562-0.724 4.847-2.009s2.008-3.030 2.008-4.848v-18.287c-0.001-1.818-0.723-3.561-2.009-4.846s-3.029-2.008-4.846-2.009h-18.287zM27.117 6.866c0 0.524-0.208 1.026-0.578 1.397s-0.873 0.579-1.397 0.579c-0.524 0-1.026-0.208-1.397-0.579s-0.578-0.873-0.578-1.397 0.208-1.026 0.578-1.397c0.37-0.37 0.873-0.579 1.397-0.579s1.026 0.208 1.397 0.579c0.37 0.37 0.578 0.873 0.578 1.397zM16.004 10.521c-1.453 0-2.846 0.577-3.873 1.604s-1.604 2.421-1.604 3.873c0 1.453 0.577 2.846 1.604 3.873s2.421 1.604 3.873 1.604c1.453 0 2.846-0.577 3.873-1.604s1.604-2.421 1.604-3.873c0-1.453-0.577-2.846-1.604-3.873s-2.421-1.604-3.873-1.604zM7.89 15.999c0-2.151 0.855-4.214 2.376-5.735s3.584-2.376 5.736-2.376c2.151 0 4.214 0.855 5.735 2.376s2.376 3.584 2.376 5.735c0 2.151-0.855 4.214-2.376 5.736s-3.584 2.376-5.735 2.376c-2.151 0-4.214-0.855-5.736-2.376s-2.376-3.584-2.376-5.736z"></path>
</symbol>
<symbol id="icon-tg-v1" viewBox="0 0 32 32">
<path d="M6.857 0c-3.787 0-6.857 3.070-6.857 6.857l0 18.286c0 3.787 3.070 6.857 6.857 6.857h18.286c3.787 0 6.857-3.070 6.857-6.857v-18.286c0-3.787-3.070-6.857-6.857-6.857l-18.286 0zM23.424 10.88c-0.24 2.528-1.28 8.672-1.808 11.504-0.224 1.2-0.672 1.6-1.088 1.648-0.928 0.080-1.632-0.608-2.528-1.2-1.408-0.928-2.208-1.504-3.568-2.4-1.584-1.040-0.56-1.616 0.352-2.544 0.24-0.24 4.336-3.968 4.416-4.304 0.011-0.051 0.010-0.104-0.004-0.154s-0.040-0.096-0.076-0.134c-0.096-0.080-0.224-0.048-0.336-0.032-0.144 0.032-2.384 1.52-6.752 4.464-0.64 0.432-1.216 0.656-1.728 0.64-0.576-0.016-1.664-0.32-2.48-0.592-1.008-0.32-1.792-0.496-1.728-1.056 0.032-0.288 0.432-0.576 1.184-0.88 4.672-2.032 7.776-3.376 9.328-4.016 4.448-1.856 5.36-2.176 5.968-2.176 0.128 0 0.432 0.032 0.624 0.192 0.16 0.128 0.208 0.304 0.224 0.432-0.016 0.096 0.016 0.384 0 0.608z"></path>
</symbol>
<symbol id="icon-yt-v1" viewBox="0 0 32 32">
<path d="M19.43 15.722l-4.502-2.387c-0.327-0.152-0.595 0.018-0.595 0.38v4.571c0 0.362 0.268 0.532 0.595 0.38l4.5-2.387c0.328-0.153 0.328-0.403 0.002-0.557zM32 6.857c0-3.787-3.070-6.857-6.857-6.857l-18.286 0c-3.787 0-6.857 3.070-6.857 6.857v18.286c0 3.787 3.070 6.857 6.857 6.857h18.286c3.787 0 6.857-3.070 6.857-6.857v-18.286zM16 23.643c-8.19 0-10.619 0-10.619-7.643s2.429-7.643 10.619-7.643c8.19 0 10.619 0 10.619 7.643s-2.429 7.643-10.619 7.643z"></path>
</symbol>
<symbol id="icon-dc" viewBox="0 0 32 32">
<path d="M25.145 0.005c3.786 0.001 6.855 3.071 6.855 6.857v18.279c0 3.787-3.070 6.857-6.857 6.857h-18.286c-3.787 0-6.857-3.070-6.857-6.857v-18.284c0-3.788 3.071-6.858 6.859-6.857l18.286 0.004zM19.554 7.204h-0.053l-0.343 0.333c3.503 1.004 5.198 2.57 5.198 2.57-2.256-1.116-4.295-1.677-6.326-1.905-1.464-0.222-2.936-0.104-4.176 0h-0.343c-0.792 0-2.48 0.339-4.743 1.232-0.785 0.339-1.24 0.561-1.24 0.561s1.688-1.677 5.422-2.57l-0.23-0.222c0 0-2.823-0.111-5.87 2.12 0 0-3.047 5.251-3.047 11.72 0 0 1.688 2.903 6.32 3.013 0 0 0.679-0.887 1.359-1.669-2.599-0.783-3.615-2.348-3.615-2.348s0.23 0.111 0.567 0.333h0.099c0.053 0 0.080 0.026 0.105 0.053v0.013c0.027 0.026 0.053 0.045 0.099 0.045 0.561 0.228 1.115 0.45 1.571 0.671 0.792 0.333 1.801 0.671 3.041 0.894 1.57 0.228 3.37 0.333 5.422 0 1.009-0.228 2.025-0.443 3.041-0.894 0.654-0.333 1.464-0.665 2.355-1.232 0 0-1.009 1.565-3.721 2.348 0.555 0.776 1.339 1.669 1.339 1.669 4.637-0.104 6.438-3.007 6.537-2.883 0-6.463-3.068-11.72-3.068-11.72-2.757-2.029-5.344-2.106-5.798-2.106l0.092-0.033 0.009 0.006zM19.838 14.575c1.188 0 2.144 0.998 2.144 2.224 0 1.24-0.963 2.237-2.144 2.237-1.188 0-2.144-0.998-2.144-2.224 0-1.24 0.962-2.237 2.144-2.237zM12.167 14.575c1.18 0 2.138 0.998 2.138 2.224 0 1.24-0.963 2.237-2.144 2.237-1.188 0-2.151-0.998-2.151-2.224 0-1.24 0.963-2.237 2.151-2.237h0.006z"></path>
</symbol>
<symbol id="icon-ig-v2" viewBox="0 0 32 32">
<path d="M20 16c0 2.209-1.791 4-4 4s-4-1.791-4-4c0-2.209 1.791-4 4-4s4 1.791 4 4z"></path>
<path d="M22.667 10.667c0 0.736-0.597 1.333-1.333 1.333s-1.333-0.597-1.333-1.333c0-0.736 0.597-1.333 1.333-1.333s1.333 0.597 1.333 1.333z"></path>
<path d="M32 0h-32l-0 32h32v-32zM25.132 19.788c-0.045 0.978-0.2 1.646-0.427 2.23-0.477 1.234-1.453 2.21-2.687 2.687-0.584 0.227-1.252 0.382-2.23 0.427-0.98 0.045-1.293 0.055-3.788 0.055s-2.808-0.011-3.788-0.055c-0.978-0.045-1.646-0.2-2.23-0.427-0.613-0.231-1.168-0.592-1.627-1.060-0.467-0.459-0.829-1.014-1.060-1.627-0.227-0.584-0.383-1.252-0.427-2.23-0.045-0.98-0.056-1.293-0.056-3.788s0.011-2.808 0.055-3.788c0.044-0.978 0.2-1.646 0.427-2.23 0.231-0.613 0.593-1.168 1.060-1.627 0.459-0.468 1.014-0.829 1.627-1.060 0.584-0.227 1.252-0.382 2.23-0.427 0.98-0.045 1.293-0.055 3.788-0.055s2.808 0.011 3.788 0.056c0.978 0.044 1.646 0.2 2.23 0.427 0.613 0.231 1.169 0.593 1.627 1.060 0.467 0.459 0.829 1.014 1.060 1.627 0.227 0.584 0.383 1.252 0.427 2.23 0.045 0.98 0.055 1.293 0.055 3.788s-0.011 2.808-0.055 3.788z"></path>
</symbol>
<symbol id="icon-yt-v2" viewBox="0 0 32 32">
<path d="M14.007 18.998l5.205-2.998-5.205-2.998v5.995z"></path>
<path d="M32 0h-32l-0 32h32v-32zM25.998 16.016c0 0 0 3.245-0.412 4.809-0.231 0.857-0.906 1.532-1.762 1.762-1.565 0.412-7.823 0.412-7.823 0.412s-6.242 0-7.823-0.428c-0.856-0.23-1.532-0.906-1.762-1.762-0.412-1.548-0.412-4.809-0.412-4.809s0-3.245 0.412-4.809c0.23-0.856 0.922-1.548 1.762-1.779 1.565-0.412 7.823-0.412 7.823-0.412s6.259 0 7.823 0.428c0.856 0.23 1.532 0.906 1.762 1.762 0.428 1.565 0.412 4.826 0.412 4.826z"></path>
</symbol>
<symbol id="icon-tg-v2" viewBox="0 0 32 32">
<path d="M22.589 11.035l-8.558 7.151c-0.084 0.068-0.14 0.168-0.154 0.277l-0.086 0.726-0.236 2.041c0.002 0.025-0.005 0.049-0.021 0.069s-0.038 0.031-0.062 0.033-0.048-0.005-0.067-0.021c-0.019-0.016-0.030-0.039-0.033-0.064l-0.665-2.041-0.687-2.087c-0.029-0.093-0.026-0.195 0.011-0.286s0.102-0.166 0.187-0.212l10.106-5.92c0.233-0.139 0.471 0.161 0.266 0.333z"></path>
<path d="M32 0l-32-0 0 32 32 0v-32zM25.98 9.262l-3.124 13.802c-0.147 0.647-0.969 0.94-1.545 0.545l-4.716-3.2-2.402 2.271c-0.098 0.092-0.217 0.159-0.346 0.194s-0.266 0.039-0.397 0.010c-0.131-0.029-0.253-0.090-0.356-0.176s-0.182-0.197-0.232-0.322l-1.735-5.091-4.649-1.273c-0.13-0.028-0.247-0.099-0.333-0.201s-0.136-0.229-0.142-0.362c-0.006-0.133 0.032-0.264 0.108-0.373s0.186-0.19 0.313-0.23l18.291-6.589c0.696-0.244 1.416 0.32 1.264 0.995z"></path>
</symbol>
<symbol id="icon-close" viewBox="0 0 32 32">
<path d="M3.825 0l12.175 12.175 12.175-12.175 3.825 3.825-12.175 12.175 12.175 12.175-3.825 3.825-12.175-12.175-12.175 12.175-3.825-3.825 12.175-12.175-12.175-12.175 3.825-3.825z"></path>
</symbol>
<symbol id="icon-circle-arrow-right" viewBox="0 0 32 32">
<path d="M5.545 32l20.91-16-20.91-16 4.278 16-4.278 16z"></path>
</symbol>
<symbol id="icon-circle-arrow-left" viewBox="0 0 32 32">
<path d="M26.455 0l-20.91 16 20.91 16-4.278-16 4.278-16z"></path>
</symbol>
</defs>
</svg>
