<svg width="154" height="40" viewBox="0 0 154 40" fill="none" xmlns="http://www.w3.org/2000/svg">
<path fill-rule="evenodd" clip-rule="evenodd" d="M51.417 0.106672C47.1698 0.694258 43.2777 2.52225 40.3217 5.31779C37.4785 8.00654 35.7579 10.9313 34.7691 14.7563C34.4466 16.0046 34.4041 16.5301 34.4015 19.304C34.3982 22.8786 34.5631 23.8849 35.5831 26.5175C37.7082 32.0021 41.8519 35.8793 47.6474 37.8055C49.8899 38.551 51.9293 38.8583 54.6177 38.8565C57.3359 38.8544 59.4098 38.5435 61.5869 37.8118C66.9787 35.9998 70.9221 32.5878 73.1906 27.772C76.6784 20.3675 75.168 11.4751 69.4473 5.73288C66.7361 3.01136 63.3604 1.24139 59.1456 0.331702C57.7296 0.0260689 52.9963 -0.111771 51.417 0.106672ZM2.03966 19.4153L2.07931 37.8081L10.1201 37.8532C20.486 37.9112 21.875 37.7722 24.7185 36.393C26.4372 35.5593 27.5028 34.6369 28.5318 33.0915C30.1178 30.7099 30.5864 27.5763 29.8524 24.2598C29.2286 21.4406 26.9596 19.2528 23.8318 18.455L22.7492 18.179L23.6258 17.5141C24.732 16.6753 25.7569 15.2859 26.2061 14.0157C26.694 12.6368 26.8166 9.39545 26.4445 7.71581C25.7378 4.52541 23.6694 2.39382 20.306 1.39005C19.5182 1.15482 18.3589 1.11656 10.705 1.0725L2 1.02263L2.03966 19.4153ZM81.1602 19.4608V37.8866H91.621H102.082V33.8094V29.7322H96.3831H90.6843V15.3836V1.03502H85.9222H81.1602V19.4608ZM107.078 19.4608V37.8866L114.69 37.8817C118.876 37.879 122.828 37.8085 123.472 37.7247C129.492 36.9425 134.809 33.0024 137.537 27.3015C139.857 22.4512 139.953 17.2221 137.816 12.0655C137.132 10.4154 135.334 7.77399 133.946 6.38006C132.091 4.51662 129.417 2.81173 126.962 1.92604C124.631 1.08551 123.963 1.03502 115.18 1.03502H107.078V19.4608ZM14.8041 8.41552C16.053 8.61812 17.0029 9.156 17.4838 9.93286C17.7921 10.4311 17.8487 10.7304 17.8487 11.8661C17.8487 13.0778 17.8052 13.2757 17.4079 13.8794C16.7173 14.9285 15.6461 15.3478 13.4379 15.4335L11.6814 15.5015V11.875V8.24851L12.7353 8.24976C13.315 8.25039 14.2459 8.32504 14.8041 8.41552ZM120.604 9.20226C123.084 9.54866 124.823 10.3846 126.443 12.0094C128.437 14.0093 129.298 16.2567 129.298 19.4608C129.298 22.5555 128.429 24.9057 126.596 26.7638C125.423 27.9533 124.372 28.5945 122.613 29.194C121.536 29.5611 121.037 29.6302 118.983 29.6969L116.602 29.7742V19.508C116.602 13.8615 116.649 9.19457 116.706 9.13718C116.868 8.97425 119.258 9.01424 120.604 9.20226ZM57.4978 9.59194C60.2127 10.3246 62.7443 12.4043 63.9733 14.9116C64.7004 16.3954 64.983 17.6778 64.9755 19.4608C64.9641 22.1486 64.1537 24.2705 62.407 26.185C61.2357 27.4689 60.055 28.2542 58.2868 28.9255C57.0881 29.3808 56.6294 29.47 55.1642 29.5336C53.0249 29.6265 51.8231 29.3684 49.7956 28.3801C47.4802 27.2517 45.7738 25.3073 44.8223 22.7134C44.2984 21.2849 44.1664 18.6927 44.5372 17.1086C44.9383 15.3947 45.7702 13.8736 47.0541 12.5073C48.6602 10.7979 50.5546 9.75707 52.8008 9.34998C53.876 9.15521 56.3514 9.28271 57.4978 9.59194ZM17.2988 22.924C19.5069 23.4348 20.5029 24.5518 20.5029 26.5175C20.5029 27.4351 20.4319 27.7367 20.0693 28.3558C19.2147 29.8162 17.5637 30.3522 13.9063 30.3568L11.6814 30.3594V26.5437C11.6814 24.4448 11.7342 22.6724 11.7985 22.6046C11.9773 22.4166 16.1537 22.6592 17.2988 22.924Z" fill="#000"/>
<path d="M151.758 33.1938C151.758 36.3237 149.221 38.861 146.091 38.861C142.961 38.861 140.424 36.3237 140.424 33.1938C140.424 30.0639 142.961 27.5266 146.091 27.5266C149.221 27.5266 151.758 30.0639 151.758 33.1938Z" fill="#FF5400"/>
</svg>
