<svg width="178" height="68" viewBox="0 0 178 68" fill="none" xmlns="http://www.w3.org/2000/svg">
<g clip-path="url(#clip0_541_435)">
<path d="M16.2223 0.898865C21.4564 0.898865 25.3378 2.28422 27.8667 5.05493C30.4249 7.82564 31.6893 11.8933 31.6893 17.2578V25.8647C31.6893 31.2293 30.4249 35.2969 27.8667 38.0676C25.3084 40.8383 21.4269 42.2237 16.2223 42.2237H11.3116V67.1011H0.931641V0.898865H16.2223ZM11.3116 10.3605V32.762H16.2223C17.8689 32.762 19.104 32.3199 19.9861 31.4356C20.8683 30.5513 21.3093 28.9007 21.3093 26.5132V16.5799C21.3093 14.1924 20.8683 12.5417 19.9861 11.6575C19.104 10.7732 17.8395 10.3311 16.2223 10.3311H11.3116V10.3605Z" fill="#E83334"/>
<path d="M56.4187 67.1011C56.3011 66.659 56.154 66.2463 56.0364 65.8631C55.9188 65.48 55.8012 65.0083 55.713 64.4483C55.6248 63.8883 55.5659 63.1514 55.5365 62.2671C55.5071 61.3828 55.4777 60.2922 55.4777 58.9658V48.5609C55.4777 45.466 54.9484 43.2848 53.8605 42.0468C52.8019 40.7794 51.067 40.1604 48.6852 40.1604H45.0978V67.1011H34.7178V0.898849H50.3907C55.8012 0.898849 59.7121 2.1663 62.1233 4.67173C64.5345 7.20663 65.7695 11.009 65.7695 16.1083V21.296C65.7695 28.1049 63.5053 32.5852 58.9769 34.7369C61.6234 35.798 63.4171 37.5665 64.4169 39.9835C65.3872 42.4005 65.8871 45.3481 65.8871 48.8262V59.0543C65.8871 60.7049 65.9459 62.1197 66.0635 63.3577C66.1812 64.5957 66.5046 65.8337 67.0045 67.1011H56.4187ZM45.0978 10.3605V30.6987H49.1556C51.0964 30.6987 52.6254 30.1976 53.7428 29.1955C54.8308 28.1933 55.3895 26.3658 55.3895 23.713V17.1694C55.3895 14.7819 54.9778 13.0428 54.1251 11.9817C53.2724 10.9206 51.9491 10.3605 50.126 10.3605H45.0978Z" fill="white"/>
<path d="M114.171 30.3155H127.58V39.7772H114.171V67.1011H103.791V0.898849H131.255V10.3605H114.171V30.3155Z" fill="white"/>
<path d="M145.104 0.898849H177.185V10.3605H166.335V67.1011H155.955V10.3605H145.104V0.898849Z" fill="#01B354"/>
<path d="M96.145 4.43593C93.4397 1.5768 89.5288 0.132492 84.4418 0.132492C79.3547 0.132492 75.4438 1.5768 72.7386 4.43593C70.0333 7.29507 68.6807 11.4217 68.6807 16.7862V51.2138C68.6807 56.5783 70.0333 60.6754 72.7386 63.564C75.4438 66.4232 79.3547 67.8675 84.4418 67.8675C89.5288 67.8675 93.4397 66.4232 96.145 63.564C98.8502 60.7049 100.203 56.5783 100.203 51.2138V16.7862C100.203 11.4217 98.8502 7.29507 96.145 4.43593ZM89.8229 51.0959H85.9414V60.7933H82.9421V51.0959H79.0606V16.9041H82.9421V7.17717H85.9414V16.9041H89.8229V51.0959Z" fill="white"/>
<path d="M143.517 14.4576H139.812V0.898849H136.812V14.4576H133.137V56.932H136.812V67.8675H139.812V56.932H143.517V14.4576Z" fill="white"/>
</g>
<defs>
<clipPath id="clip0_541_435">
<rect width="178" height="68" fill="white"/>
</clipPath>
</defs>
</svg>
