<svg width="167" height="42" viewBox="0 0 167 42" fill="none" xmlns="http://www.w3.org/2000/svg">
<path d="M56.7189 29.2913L54.931 27.7027C53.9049 28.4353 52.6989 28.8002 51.3073 28.8002C49.9158 28.8002 49.2327 28.5587 48.2909 28.0731C47.3491 27.5875 46.5901 26.8686 46.0082 25.9137C45.4263 24.9589 45.1367 23.8175 45.1367 22.4895C45.1367 21.1615 45.4122 20.1546 45.9632 19.197C46.5142 18.2421 47.262 17.4986 48.2122 16.969C49.1596 16.4395 50.2166 16.1733 51.3776 16.1733C52.5386 16.1733 53.59 16.4285 54.5318 16.9334C55.4735 17.441 56.2185 18.1653 56.7695 19.1064C57.3205 20.0476 57.596 21.1368 57.596 22.3743C57.596 23.6117 57.1603 25.3211 56.2888 26.4268L58.0317 27.9935L56.7245 29.2913H56.7189ZM51.282 18.2092C50.6101 18.2092 49.9832 18.3546 49.4013 18.6455C48.8194 18.9363 48.3471 19.3918 47.9789 20.0119C47.6106 20.632 47.4279 21.4112 47.4279 22.3523C47.4279 23.2934 47.6022 24.0068 47.9564 24.6708C48.3078 25.3348 48.7885 25.8452 49.4013 26.2046C50.0142 26.564 50.6945 26.7424 51.4423 26.7424C52.19 26.7424 52.7045 26.5942 53.3455 26.2951L50.8688 24.0343L52.221 22.6459L54.6976 24.9507C55.094 24.2044 55.2936 23.384 55.2936 22.4868C55.2936 21.5896 55.094 20.7115 54.6976 20.0695C54.2985 19.4275 53.7953 18.9583 53.1824 18.6592C52.5696 18.3601 51.937 18.212 51.2792 18.212L51.282 18.2092Z" fill="#0197BB"/>
<path d="M64.6325 28.844C63.1342 28.844 62.0069 28.5834 61.2478 28.0593C60.4916 27.538 60.0081 26.9481 59.8029 26.2896C59.5977 25.6338 59.4937 24.9314 59.4937 24.1851V16.3269H61.7201V24.0726C61.7201 24.432 61.7595 24.7805 61.8354 25.1262C61.9731 25.664 62.2852 26.0783 62.7771 26.3691C63.2663 26.66 63.8848 26.8054 64.6354 26.8054C65.3859 26.8054 66.0494 26.66 66.5385 26.3691C67.0277 26.0783 67.3482 25.664 67.5028 25.1262C67.5478 24.8134 67.5703 24.4622 67.5703 24.0726V16.3269H69.8192V24.1851C69.8192 24.9314 69.7152 25.6338 69.51 26.2896C69.3048 26.9453 68.8212 27.5352 68.065 28.0593C67.3088 28.5806 66.1647 28.844 64.6354 28.844H64.6325Z" fill="#0197BB"/>
<path d="M78.0504 16.3269L82.7985 28.641H80.527L79.2423 25.3951H74.5869L73.3247 28.641H71.1235L75.8717 16.3269H78.0504ZM76.9034 18.8128L75.2982 23.4251H78.5086L76.9034 18.8128Z" fill="#0197BB"/>
<path d="M86.9504 16.3269L93.0536 25.4609V16.3269H95.325V28.641H92.5954L86.5175 19.485V28.641H84.2686V16.3269H86.9533H86.9504Z" fill="#0197BB"/>
<path d="M107.206 16.327V18.297L103.076 17.4492V28.6411H100.827V17.4492L96.6973 18.297V16.327L101.951 14.7L107.206 16.327Z" fill="#0197BB"/>
<path d="M114.295 16.1707C115.456 16.1707 116.508 16.4258 117.449 16.9307C118.391 17.4383 119.136 18.1626 119.687 19.1038C120.238 20.0449 120.514 21.1341 120.514 22.3716C120.514 23.609 120.241 24.7203 119.698 25.697C119.156 26.6738 118.405 27.4366 117.449 27.9799C116.494 28.5259 115.42 28.7975 114.228 28.7975C113.036 28.7975 112.153 28.5561 111.211 28.0704C110.27 27.5848 109.511 26.8659 108.929 25.9111C108.347 24.9562 108.057 23.8148 108.057 22.4868C108.057 21.1588 108.333 20.1519 108.884 19.1943C109.435 18.2395 110.182 17.4959 111.133 16.9663C112.08 16.4368 113.137 16.1707 114.298 16.1707H114.295ZM114.202 18.2093C113.531 18.2093 112.904 18.3547 112.322 18.6455C111.74 18.9364 111.268 19.3918 110.899 20.0119C110.531 20.632 110.348 21.4113 110.348 22.3524C110.348 23.2935 110.523 24.0069 110.877 24.6709C111.228 25.3349 111.709 25.8452 112.322 26.2046C112.935 26.5641 113.615 26.7424 114.363 26.7424C115.11 26.7424 115.645 26.5943 116.232 26.2952C116.82 25.9961 117.298 25.5269 117.666 24.8849C118.034 24.2428 118.217 23.4444 118.217 22.4896C118.217 21.5347 118.017 20.7143 117.621 20.0723C117.222 19.4303 116.718 18.9611 116.106 18.662C115.493 18.3629 114.86 18.2148 114.202 18.2148V18.2093Z" fill="#0197BB"/>
<path d="M123.814 16.3269L126.339 25.7765L129.389 16.3269H131.936L134.412 25.7765L137.578 16.3269H139.987L135.492 28.641H133.153L130.561 19.1695L127.556 28.641H125.239L121.408 16.3269H123.817H123.814Z" fill="#0197BB"/>
<path d="M141.362 16.327H149.644V18.297H143.611V21.3865H148.955V23.3785H143.611V26.6463H149.644V28.6383H141.362V16.3242V16.327Z" fill="#0197BB"/>
<path d="M155.929 16.3269C159.384 16.3269 161.113 17.5369 161.113 19.9542C161.113 22.3714 160.18 22.879 158.313 23.4909L161.479 28.641H158.932L156.042 23.8503C155.811 23.8641 155.482 23.8723 155.055 23.8723C154.628 23.8723 154.504 23.8586 154.046 23.8284V28.641H151.797V16.3269H155.927H155.929ZM154.049 21.8364C154.431 21.8803 154.796 21.9023 155.151 21.9023C156.312 21.9023 157.22 21.7788 157.869 21.5318C158.518 21.2849 158.845 20.7746 158.845 19.9981C158.845 19.2216 158.566 18.8759 158.007 18.6427C157.447 18.4122 156.68 18.2969 155.702 18.2969H154.049V21.8337V21.8364Z" fill="#0197BB"/>
<g clip-path="url(#clip0_528_5780)">
<path d="M23.5511 4.19995C14.0711 4.19995 6.42285 11.7016 6.42285 21C6.42285 30.2668 14.0711 37.8 23.5511 37.8C32.9989 37.8 40.6793 30.2983 40.6793 21C40.6471 11.7016 32.9989 4.19995 23.5511 4.19995ZM33.3524 32.0318V24.278L27.9858 23.6476V34.9632C27.4394 35.1208 26.8931 35.2469 26.3147 35.373V21.7564L33.3524 22.8596V18.6675L23.5511 15.7362L13.7497 18.6675V22.8912L20.7874 21.7879V35.4045C20.209 35.3099 19.6627 35.1523 19.1164 34.9947V23.6791L13.7497 24.3096V32.0634C10.6005 29.3842 8.60807 25.4127 8.60807 21C8.60807 12.8994 15.2922 6.3433 23.5511 6.3433C31.8099 6.3433 38.494 12.8994 38.494 21C38.494 25.4127 36.5016 29.3526 33.3524 32.0318Z" fill="#0197BB"/>
<path d="M33.3525 17.5957V15.5155L23.5512 11.5125L13.7178 15.5155V17.5957L23.5512 14.3177L33.3525 17.5957Z" fill="#0197BB"/>
<path d="M23.5513 10.1257L30.2355 13.057V11.1343L23.5513 7.79321L16.835 11.1343V13.057L23.5513 10.1257Z" fill="#0197BB"/>
</g>
<defs>
<clipPath id="clip0_528_5780">
<rect width="34.2564" height="33.6" fill="white" transform="translate(6.42285 4.19995)"/>
</clipPath>
</defs>
</svg>
