<svg width="124" height="89" fill="none" xmlns="http://www.w3.org/2000/svg"><path d="M22.163 4.652h87.083c1.156 0 2.093.937 2.093 2.093v75.51a2.093 2.093 0 0 1-2.093 2.093H22.163a2.093 2.093 0 0 1-2.093-2.093V6.745c0-1.156.937-2.093 2.093-2.093Z" fill="url('#paint0_linear_478_18105')"/><path d="M20.07 19.338v62.917c0 1.156.937 2.093 2.093 2.093h87.083a2.093 2.093 0 0 0 2.093-2.093V19.338m-91.269 0V6.745c0-1.156.937-2.093 2.093-2.093h87.083c1.156 0 2.093.937 2.093 2.093v12.593m-91.269 0h91.269" stroke="#44494F"/><path d="M76.935 47.56c0 11.159-8.95 20.206-19.991 20.206-1.02 0-2.022-.078-3.002-.227l.007-.002c.247-.069.484-.158.715-.26 2.024-.892 3.417-2.932 3.417-5.3 0-1.6-.642-3.046-1.678-4.095a5.683 5.683 0 0 0-4.048-1.694h-13.49a20.287 20.287 0 0 1-1.903-9.219c0-.009 0-.02.002-.03.007-.299.023-.594.046-.889a20.061 20.061 0 0 1 2.734-8.794 21.58 21.58 0 0 1 1.473-2.17c.221-.289.455-.57.694-.844 3.662-4.223 9.039-6.89 15.033-6.89 11.042 0 19.99 9.048 19.99 20.207Z" fill="url('#paint1_linear_478_18105')" fill-opacity=".5" stroke="#2AF895" stroke-width="1.046" stroke-miterlimit="10" stroke-linecap="round" stroke-linejoin="round"/><path d="M.953 70.299h7.902v-31.83H.953v31.83Z" fill="#11452C" stroke="#2AF895" stroke-width="1.046" stroke-miterlimit="10" stroke-linecap="round" stroke-linejoin="round"/><path d="M25.71 67.764h26.642a5.64 5.64 0 0 0 2.31-.487c2.024-.892 3.418-2.931 3.418-5.3 0-1.6-.643-3.045-1.679-4.095a5.683 5.683 0 0 0-4.049-1.694H35.608c-2.52 0-4.56-2.062-4.56-4.61a4.62 4.62 0 0 1 1.334-3.26 4.526 4.526 0 0 1 3.226-1.348h1.352a20.22 20.22 0 0 1 5.05-12.847l-2.924-2.206a8.248 8.248 0 0 0-8.778-.746l-14.755 9.73a8.257 8.257 0 0 1-3.797.927H8.867v25.936h6.368" stroke="#2AF895" stroke-width="1.046" stroke-miterlimit="10" stroke-linecap="round" stroke-linejoin="round"/><path d="M59.298 41.294h.001c.517.456.838 1.029.965 1.73.06.333.343.616.714.616.394 0 .74-.337.675-.762a4.305 4.305 0 0 0-2.299-3.214 4.84 4.84 0 0 0-1.879-.533v-2.258a.604.604 0 1 0-1.208 0v2.274a5.08 5.08 0 0 0-1.74.507h-.001a4.359 4.359 0 0 0-1.71 1.514c-.425.647-.636 1.386-.636 2.21 0 .987.319 1.825.962 2.498h.001c.637.662 1.544 1.17 2.7 1.537l.424.134v6.257a4.15 4.15 0 0 1-1.256-.32 3.046 3.046 0 0 1-1.243-.964 2.708 2.708 0 0 1-.47-1.101c-.066-.337-.352-.628-.732-.628-.404 0-.76.35-.685.786.106.61.326 1.163.662 1.659.428.627 1.009 1.114 1.734 1.462.638.306 1.271.455 1.99.502v2.24a.604.604 0 1 0 1.208 0v-2.25c.747-.063 1.42-.241 2.015-.538.764-.384 1.36-.912 1.778-1.587.423-.674.633-1.436.633-2.278 0-.577-.102-1.097-.313-1.555a3.519 3.519 0 0 0-.86-1.176 5.213 5.213 0 0 0-1.26-.854c-.47-.233-.98-.437-1.533-.612l-.002-.001-.458-.141v-5.93c.736.085 1.34.347 1.823.776Zm-4.121-.426a3.6 3.6 0 0 1 1.09-.333v5.54a7.693 7.693 0 0 1-1.075-.437 3.86 3.86 0 0 1-.878-.592 2.457 2.457 0 0 1-.554-.751 2.29 2.29 0 0 1-.188-.946c0-.558.142-1.043.422-1.464a2.962 2.962 0 0 1 1.183-1.017Zm2.298 12.927v-5.868l.055.017c.68.213 1.238.452 1.682.714.443.26.764.56.978.896.209.33.32.734.32 1.225 0 .613-.155 1.14-.457 1.589-.306.453-.73.812-1.285 1.075a4.194 4.194 0 0 1-1.293.352Z" fill="#2AF895" stroke="#2AF895" stroke-width=".523"/><rect x="93.68" y="9.5" width="11.902" height="4.796" rx="2.398" fill="#16171A" stroke="#44494F"/><path d="M104.555 37.996c.302 0 .547.245.547.547v38.962a.547.547 0 0 1-.547.546h-5.553a.547.547 0 0 1-.546-.546V38.543c0-.302.245-.547.546-.547h5.553ZM94.524 53.935c.302 0 .546.245.546.547v23.023a.547.547 0 0 1-.546.547h-5.075a.547.547 0 0 1-.546-.547V54.482c0-.302.244-.547.546-.547h5.075Z" fill="#16171A" stroke="#44494F"/><rect x="85.512" y="68.426" width="9.626" height="6.168" rx=".547" transform="rotate(90 85.512 68.426)" fill="#16171A" stroke="#44494F"/><rect x="86.031" y="9.5" width="4.734" height="4.796" rx="2.367" fill="#16171A" stroke="#44494F"/><rect x="78.391" y="9.5" width="4.734" height="4.796" rx="2.367" fill="#16171A" stroke="#44494F"/><defs><linearGradient id="paint0_linear_478_18105" x1="66.596" y1="92.26" x2="66.596" y2="-1.907" gradientUnits="userSpaceOnUse"><stop stop-color="#16171A"/><stop offset="1" stop-color="#2D3135"/></linearGradient><linearGradient id="paint1_linear_478_18105" x1="71.936" y1="33.669" x2="42.134" y2="62.653" gradientUnits="userSpaceOnUse"><stop stop-color="#06AA53"/><stop offset="1" stop-color="#024421"/></linearGradient></defs></svg>