<svg width="218" height="156" fill="none" xmlns="http://www.w3.org/2000/svg"><path d="M38.952 8.155H192.07a3.669 3.669 0 0 1 3.669 3.668V144.177a3.669 3.669 0 0 1-3.669 3.668H38.951a3.668 3.668 0 0 1-3.668-3.668V11.823a3.669 3.669 0 0 1 3.669-3.668Z" fill="url('#paint0_linear_305_8585')"/><path d="M35.283 33.895v110.282a3.668 3.668 0 0 0 3.669 3.668H192.07a3.669 3.669 0 0 0 3.669-3.668V33.895m-160.457 0V11.823a3.669 3.669 0 0 1 3.669-3.668H192.07a3.669 3.669 0 0 1 3.669 3.668v22.072m-160.457 0H195.74" stroke="#44494F" stroke-width=".917"/><path d="M135.253 83.363c0 19.561-15.735 35.418-35.145 35.418-1.794 0-3.555-.136-5.277-.397.004 0 .007-.004.012-.004.433-.12.85-.276 1.257-.457 3.558-1.562 6.008-5.137 6.008-9.289 0-2.805-1.129-5.338-2.95-7.177a10.004 10.004 0 0 0-7.119-2.97H68.323a35.47 35.47 0 0 1-3.344-16.158c0-.016 0-.036.004-.052.011-.525.04-1.042.08-1.559a35.089 35.089 0 0 1 4.807-15.415 37.83 37.83 0 0 1 2.589-3.804c.39-.505.799-.998 1.22-1.48 6.439-7.401 15.891-12.074 26.429-12.074 19.413 0 35.145 15.858 35.145 35.418Z" fill="url('#paint1_linear_305_8585')" fill-opacity=".5" stroke="#2AF895" stroke-width="1.834" stroke-miterlimit="10" stroke-linecap="round" stroke-linejoin="round"/><path d="M1.68 123.221h13.892V67.428H1.68v55.793Z" fill="#11452C" stroke="#2AF895" stroke-width="1.834" stroke-miterlimit="10" stroke-linecap="round" stroke-linejoin="round"/><path d="M45.201 118.778H92.04a9.96 9.96 0 0 0 2.804-.396 9.188 9.188 0 0 0 1.257-.457c3.558-1.563 6.008-5.138 6.008-9.29 0-2.805-1.129-5.337-2.95-7.177a10.007 10.007 0 0 0-7.119-2.97H62.601c-4.43 0-8.017-3.614-8.017-8.078 0-2.233.895-4.252 2.346-5.715a7.97 7.97 0 0 1 5.671-2.364h2.378a35.385 35.385 0 0 1 8.88-22.518l-5.142-3.867a14.536 14.536 0 0 0-15.433-1.307l-25.94 17.056a14.553 14.553 0 0 1-6.676 1.623H15.59v45.46h11.194" stroke="#2AF895" stroke-width="1.834" stroke-miterlimit="10" stroke-linecap="round" stroke-linejoin="round"/><path d="m104.258 72.382-.001-.002c-.851-.752-1.913-1.21-3.209-1.358v10.392m3.21-9.032.092 10.766m-.092-10.766c.908.798 1.472 1.801 1.696 3.028.106.585.603 1.082 1.254 1.082.691 0 1.299-.592 1.185-1.338a7.542 7.542 0 0 0-1.114-2.977c-.723-1.13-1.702-2.015-2.927-2.654-.989-.523-2.093-.832-3.304-.933m3.21 3.792-3.21-3.792m0 12.824.806.248h.004c.97.309 1.869.666 2.694 1.074m-3.504-1.322-.458-.14v.48l.458.14v-.48Zm3.504 1.322h.001l-.203.412m.202-.412h-.001l-.201.412m.202-.412a9.165 9.165 0 0 1 2.216 1.496m-2.418-1.084c.81.396 1.513.87 2.109 1.422m.309-.338-.002-.002-.307.34m.309-.338a6.157 6.157 0 0 1 1.51 2.062c.372.803.551 1.715.551 2.726 0 1.476-.369 2.812-1.113 3.994-.735 1.182-1.782 2.108-3.124 2.78h-.001c-1.046.52-2.23.833-3.543.945v3.941a1.06 1.06 0 0 1-2.12 0v-3.924c-1.265-.083-2.378-.345-3.5-.881-1.275-.61-2.294-1.463-3.047-2.56v-.002a7.348 7.348 0 0 1-1.164-2.904c-.133-.768.492-1.382 1.202-1.382.668 0 1.17.511 1.285 1.102.14.728.417 1.369.826 1.929.544.724 1.269 1.288 2.186 1.69.661.29 1.397.477 2.211.56V83.34l-.746-.234c-2.033-.645-3.626-1.535-4.746-2.693l-.001-.001c-1.131-1.18-1.691-2.65-1.691-4.38 0-1.444.37-2.74 1.118-3.873.74-1.13 1.746-2.016 3.004-2.653h.002a8.95 8.95 0 0 1 3.06-.89v-3.984a1.06 1.06 0 1 1 2.121 0v3.957m5.72 15.642.003.002-.312.336m0 0-5.411-15.98m2.276 25.085a7.391 7.391 0 0 1-2.276.618V84.007l.099.03.001.001c1.193.372 2.176.79 2.956 1.25l.002.002c.778.454 1.343.98 1.718 1.57.367.578.561 1.287.561 2.147 0 1.073-.271 1.995-.802 2.783-.537.796-1.284 1.425-2.259 1.885ZM98.927 71.05v9.711c-.69-.224-1.32-.48-1.892-.765a6.793 6.793 0 0 1-1.545-1.04 4.308 4.308 0 0 1-.974-1.316c-.217-.485-.33-1.035-.33-1.658 0-.977.25-1.827.742-2.565.498-.747 1.186-1.342 2.08-1.784a6.347 6.347 0 0 1 1.92-.583Z" fill="#2AF895" stroke="#2AF895" stroke-width=".917"/><rect x="164.275" y="16.233" width="21.765" height="9.242" rx="4.621" fill="#16171A" stroke="#44494F" stroke-width=".917"/><path d="M183.826 66.183c.76 0 1.376.616 1.376 1.375v68.294c0 .759-.616 1.375-1.376 1.375h-9.773c-.76 0-1.376-.616-1.376-1.375V67.558c0-.76.616-1.375 1.376-1.375h9.773ZM166.183 94.12c.76 0 1.376.617 1.376 1.376v40.355c0 .76-.616 1.376-1.376 1.376h-8.932c-.76 0-1.376-.616-1.376-1.376V95.496c0-.76.616-1.375 1.376-1.375h8.932Z" fill="#16171A" stroke="#44494F" stroke-width=".917"/><rect x="150.756" y="119.519" width="17.708" height="11.684" rx="1.376" transform="rotate(90 150.756 119.519)" fill="#16171A" stroke="#44494F" stroke-width=".917"/><rect x="150.834" y="16.233" width="9.164" height="9.242" rx="4.582" fill="#16171A" stroke="#44494F" stroke-width=".917"/><rect x="137.392" y="16.233" width="9.164" height="9.242" rx="4.582" fill="#16171A" stroke="#44494F" stroke-width=".917"/><defs><linearGradient id="paint0_linear_305_8585" x1="117.079" y1="161.714" x2="117.079" y2="-3.342" gradientUnits="userSpaceOnUse"><stop stop-color="#16171A"/><stop offset="1" stop-color="#2D3135"/></linearGradient><linearGradient id="paint1_linear_305_8585" x1="126.465" y1="59.015" x2="74.223" y2="109.976" gradientUnits="userSpaceOnUse"><stop stop-color="#06AA53"/><stop offset="1" stop-color="#024421"/></linearGradient></defs></svg>