<svg width="204" height="172" fill="none" xmlns="http://www.w3.org/2000/svg"><path d="M184.39 66.474c0 24.504-19.865 44.369-44.37 44.369s-44.37-19.865-44.37-44.37c0-24.504 19.865-44.369 44.37-44.369s44.37 19.865 44.37 44.37Z" fill="url('#paint0_linear_305_8633')" stroke="#44494F"/><path d="M144.678 60.95v-5.3h12.056v-8.358h-33.459v8.359h12.088v5.299c-10.127.49-17.728 2.522-17.728 4.936s7.592 4.455 17.728 4.935v17.5h9.315v-17.5c10.127-.484 17.728-2.517 17.728-4.935 0-2.419-7.579-4.447-17.728-4.936Zm-4.658 8.328c-10.966 0-19.855-1.696-19.855-3.738 0-1.754 6.475-3.23 15.189-3.625V67.9c1.498.068 3.055.108 4.657.108 1.602 0 3.168-.04 4.658-.108v-5.985c8.713.395 15.188 1.87 15.188 3.625.018 2.064-8.871 3.738-19.837 3.738Z" fill="#41484C"/><path d="M139.635 6.493v150.309a4 4 0 0 1-3.062 3.888l-27.251 6.574a4.004 4.004 0 0 1-.938.112h-40.05a4 4 0 0 1-4-4V6.493a4 4 0 0 1 4-4h67.301a4 4 0 0 1 4 4Z" fill="url('#paint1_linear_305_8633')"/><path fill="#41484C" d="M64.406 60.657h75.614v7.478H64.406z"/><path fill="#2AF895" d="M64.406 68.135h75.614v7.478H64.406z"/><path fill="url('#paint2_linear_305_8633')" d="M64.406 53.179h28.251v7.478H64.406z"/><path fill="url('#paint3_linear_305_8633')" d="M64.406 75.614h20.773v7.478H64.406z"/><path fill="url('#paint4_linear_305_8633')" d="M64.406 32.406h17.449v7.478H64.406z"/><path fill="url('#paint5_linear_305_8633')" d="M64.406 11.633h40.715v7.478H64.406z"/><path fill="url('#paint6_linear_305_8633')" d="M64.406 122.976h28.251v7.478H64.406z"/><path fill="url('#paint7_linear_305_8633')" d="M64.406 139.594h16.618v7.478H64.406z"/><path d="M139.635 160.121V6.493a4 4 0 0 0-4-4H68.334a4 4 0 0 0-4 4v85.739m44.591 75.144H68.334a4 4 0 0 1-4-4v-40.4" stroke="#44494F" stroke-linecap="round" stroke-linejoin="round"/><g filter="url('#filter0_b_305_8633')"><circle cx="81.856" cy="122.145" r="29.082" fill="url('#paint8_linear_305_8633')" fill-opacity=".5"/></g><path d="m107.613 147.903 19.942 19.942" stroke="#2AF895" stroke-width="4" stroke-linecap="round"/><path d="M74.654 93.355c15.88-3.958 31.962 5.708 35.92 21.588 3.957 15.881-5.708 31.963-21.589 35.921-15.88 3.957-31.963-5.709-35.92-21.589-2.042-8.193-.458-16.439 3.735-23.046" stroke="#2AF895" stroke-width="2" stroke-linecap="round"/><defs><linearGradient id="paint0_linear_305_8633" x1="140.02" y1="111.343" x2="184.89" y2="21.604" gradientUnits="userSpaceOnUse"><stop stop-color="#16171A"/><stop offset="1" stop-color="#2D3135"/></linearGradient><linearGradient id="paint1_linear_305_8633" x1="140.019" y1="160.783" x2="55.919" y2="2.493" gradientUnits="userSpaceOnUse"><stop stop-color="#08090A" stop-opacity="0"/><stop offset=".22" stop-color="#08090A"/><stop offset="1" stop-color="#2D3135"/></linearGradient><linearGradient id="paint2_linear_305_8633" x1="64.406" y1="56.918" x2="92.657" y2="56.918" gradientUnits="userSpaceOnUse"><stop stop-color="#2AF895"/><stop offset="1" stop-color="#199258" stop-opacity="0"/></linearGradient><linearGradient id="paint3_linear_305_8633" x1="64.406" y1="79.353" x2="85.179" y2="79.353" gradientUnits="userSpaceOnUse"><stop stop-color="#2AF895"/><stop offset="1" stop-color="#199258" stop-opacity="0"/></linearGradient><linearGradient id="paint4_linear_305_8633" x1="64.406" y1="36.145" x2="81.856" y2="36.145" gradientUnits="userSpaceOnUse"><stop stop-color="#2AF895"/><stop offset="1" stop-color="#199258" stop-opacity="0"/></linearGradient><linearGradient id="paint5_linear_305_8633" x1="64.406" y1="15.372" x2="105.121" y2="15.372" gradientUnits="userSpaceOnUse"><stop stop-color="#2AF895"/><stop offset="1" stop-color="#199258" stop-opacity="0"/></linearGradient><linearGradient id="paint6_linear_305_8633" x1="64.406" y1="126.715" x2="92.657" y2="126.715" gradientUnits="userSpaceOnUse"><stop stop-color="#2AF895"/><stop offset="1" stop-color="#199258" stop-opacity="0"/></linearGradient><linearGradient id="paint7_linear_305_8633" x1="64.406" y1="143.333" x2="81.025" y2="143.333" gradientUnits="userSpaceOnUse"><stop stop-color="#2AF895"/><stop offset="1" stop-color="#199258" stop-opacity="0"/></linearGradient><linearGradient id="paint8_linear_305_8633" x1="81.856" y1="151.227" x2="52.773" y2="93.063" gradientUnits="userSpaceOnUse"><stop stop-color="#06AA53" stop-opacity=".8"/><stop offset=".831" stop-color="#024421" stop-opacity=".2"/></linearGradient><filter id="filter0_b_305_8633" x="50.773" y="91.063" width="62.164" height="62.164" filterUnits="userSpaceOnUse" color-interpolation-filters="sRGB"><feFlood flood-opacity="0" result="BackgroundImageFix"/><feGaussianBlur in="BackgroundImageFix" stdDeviation="1"/><feComposite in2="SourceAlpha" operator="in" result="effect1_backgroundBlur_305_8633"/><feBlend in="SourceGraphic" in2="effect1_backgroundBlur_305_8633" result="shape"/></filter></defs></svg>