<svg width="143" height="151" fill="none" xmlns="http://www.w3.org/2000/svg"><path d="M123.781 142.546v.5h4.228c1.569 0 2.994 1.576 2.994 3.727s-1.425 3.727-2.994 3.727H15.712c-1.57 0-2.995-1.576-2.995-3.727s1.425-3.727 2.994-3.727h4.228v-30.088c0-2.151 1.426-3.727 2.995-3.727h13.979c1.569 0 2.995 1.576 2.995 3.727v30.088h7.989v-40.233c0-2.151 1.426-3.726 2.995-3.726H64.87c1.569 0 2.994 1.575 2.994 3.726v40.233h7.99V87.315c0-2.151 1.425-3.727 2.994-3.727h13.98c1.568 0 2.994 1.576 2.994 3.727v55.731h7.989v-83.91c0-2.152 1.426-3.727 2.995-3.727h13.979c1.569 0 2.995 1.575 2.995 3.727v83.41Z" fill="url('#paint0_linear_305_8532')" stroke="#44494F"/><path d="M61.082 70.081c23.564-10.28 46.474-28.098 63.165-59.966m0 0 2.946 19.874m-2.946-19.874-18.328 6.853" stroke="url('#paint1_linear_305_8532')" stroke-width="10" stroke-linecap="round" stroke-linejoin="round"/><path d="M70.855 38.32c3.104-.56 5.751-.626 7.703-.182.442 2.108.373 4.875-.181 8.06-.566 3.252-1.626 6.877-3.092 10.572-2.935 7.4-7.461 14.988-12.778 20.363l-.004.004a46.132 46.132 0 0 1-6.104 5.236l-.462.331.048.567c.279 3.286.021 6.481-1.131 9.168-1.64 3.807-4.625 6.294-7.736 7.919-3.117 1.628-6.303 2.36-8.225 2.673l-.008.001a.416.416 0 0 1-.354-.11.453.453 0 0 1-.137-.381v-.001l1.415-13.089.119-1.096-1.103-.011a27.163 27.163 0 0 1-2.792-.172l-.014-.002a1.876 1.876 0 0 1-1.156-.559l-.004-.004-4.995-5.063-.003-.003a1.952 1.952 0 0 1-.556-1.191v-.007l-.002-.008a28.592 28.592 0 0 1-.17-2.857l-.01-1.108-1.1.124-12.9 1.445a.402.402 0 0 1-.186-.023.423.423 0 0 1-.162-.11.452.452 0 0 1-.114-.39v-.005c.318-1.96 1.043-5.201 2.65-8.371 1.604-3.167 4.054-6.2 7.794-7.873 2.634-1.166 5.786-1.42 9.033-1.129l.578.052.332-.477a46.406 46.406 0 0 1 5.153-6.186l.003-.003c5.298-5.38 12.879-9.98 20.223-12.964 3.666-1.49 7.248-2.567 10.428-3.14Z" fill="#16171A"/><path d="M70.855 38.32c3.104-.56 5.751-.626 7.703-.182.442 2.108.373 4.875-.181 8.06-.566 3.252-1.626 6.877-3.092 10.572-2.935 7.4-7.461 14.988-12.778 20.363l-.004.004a46.132 46.132 0 0 1-6.104 5.236l-.462.331.048.567c.279 3.286.021 6.481-1.131 9.168-1.64 3.807-4.625 6.294-7.736 7.919-3.117 1.628-6.303 2.36-8.225 2.673l-.008.001a.416.416 0 0 1-.354-.11.453.453 0 0 1-.137-.381v-.001l1.415-13.089.119-1.096-1.103-.011a27.163 27.163 0 0 1-2.792-.172l-.014-.002a1.876 1.876 0 0 1-1.156-.559l-.004-.004-4.995-5.063-.003-.003a1.952 1.952 0 0 1-.556-1.191v-.007l-.002-.008a28.592 28.592 0 0 1-.17-2.857l-.01-1.108-1.1.124-12.9 1.445a.402.402 0 0 1-.186-.023.423.423 0 0 1-.162-.11.452.452 0 0 1-.114-.39v-.005c.318-1.96 1.043-5.201 2.65-8.371 1.604-3.167 4.054-6.2 7.794-7.873 2.634-1.166 5.786-1.42 9.033-1.129l.578.052.332-.477a46.406 46.406 0 0 1 5.153-6.186l.003-.003c5.298-5.38 12.879-9.98 20.223-12.964 3.666-1.49 7.248-2.567 10.428-3.14Z" fill="url('#paint2_linear_305_8532')" fill-opacity=".5"/><path d="M70.855 38.32c3.104-.56 5.751-.626 7.703-.182.442 2.108.373 4.875-.181 8.06-.566 3.252-1.626 6.877-3.092 10.572-2.935 7.4-7.461 14.988-12.778 20.363l-.004.004a46.132 46.132 0 0 1-6.104 5.236l-.462.331.048.567c.279 3.286.021 6.481-1.131 9.168-1.64 3.807-4.625 6.294-7.736 7.919-3.117 1.628-6.303 2.36-8.225 2.673l-.008.001a.416.416 0 0 1-.354-.11.453.453 0 0 1-.137-.381v-.001l1.415-13.089.119-1.096-1.103-.011a27.163 27.163 0 0 1-2.792-.172h0l-.014-.002a1.876 1.876 0 0 1-1.156-.559l-.004-.004-4.995-5.063-.003-.003a1.952 1.952 0 0 1-.556-1.191v-.007l-.002-.008a28.592 28.592 0 0 1-.17-2.857l-.01-1.108-1.1.124-12.9 1.445a.402.402 0 0 1-.186-.023.423.423 0 0 1-.162-.11.452.452 0 0 1-.114-.39v-.005c.318-1.96 1.043-5.201 2.65-8.371 1.604-3.167 4.054-6.2 7.794-7.873 2.634-1.166 5.786-1.42 9.033-1.129l.578.052.332-.477a46.406 46.406 0 0 1 5.153-6.186l.003-.003c5.298-5.38 12.879-9.98 20.223-12.964 3.666-1.49 7.248-2.567 10.428-3.14Z" stroke="#2AF895" stroke-width="2" stroke-linecap="round"/><circle cx="57.5" cy="59.5" r="6.5" fill="#050506"/><path d="M29.982 94.475c1.221-.206 2.507-.462 3.523-1.088a7.594 7.594 0 0 1-2.1 3.64l-.002.001c-.695.677-1.97 1.281-3.65 1.781-1.647.49-3.55.841-5.371 1.091a68.706 68.706 0 0 1-5.77.534 65.336 65.336 0 0 1 .546-5.567c.257-1.769.617-3.613 1.12-5.208.51-1.627 1.129-2.86 1.821-3.533a8.023 8.023 0 0 1 3.851-2.069l-.024.046c-.156.297-.31.647-.453 1.012a13.479 13.479 0 0 0-.68 2.318v.001c-.772 4.224 3.018 7.731 7.186 7.041h.003Zm-6.205-6.861c.243-1.32.962-3.172 1.41-3.607a.619.619 0 0 0 .129-.731.642.642 0 0 0-.28-.28.668.668 0 0 0-.394-.07l-.865 4.688Z" fill="#024421" fill-opacity=".5" stroke="#2AF895" stroke-width="2"/><defs><linearGradient id="paint0_linear_305_8532" x1="73.025" y1="152.4" x2="73.025" y2="54.909" gradientUnits="userSpaceOnUse"><stop stop-color="#16171A"/><stop offset="1" stop-color="#2D3135"/></linearGradient><linearGradient id="paint1_linear_305_8532" x1="96.861" y1="71.651" x2="96.861" y2="10.115" gradientUnits="userSpaceOnUse"><stop stop-color="#16171A"/><stop offset="1" stop-color="#2D3135"/></linearGradient><linearGradient id="paint2_linear_305_8532" x1="79.847" y1="38.767" x2="26.438" y2="87.753" gradientUnits="userSpaceOnUse"><stop stop-color="#06AA53"/><stop offset="1" stop-color="#024421"/></linearGradient></defs></svg>