<svg width="145" height="165" fill="none" xmlns="http://www.w3.org/2000/svg"><path d="M58.996 27.989h1v-1h-1v1Zm3.535 0v-1h-1v1h1Zm-1 9.713a1 1 0 0 0 2 0h-2ZM59.313 9.618l-.898-.44.898.44Zm3.603.02-.904.43.904-.43ZM51.73 25.11l-.898-.44.898.44Zm18.546.02.904-.428-.904.429Zm-47.24 59.637v-3.95h-2v3.95h2Zm36.96-40.911V27.989h-2v15.867h2Zm-1-16.867h-5.47v2h5.47v-2Zm-6.368-1.44 7.583-15.492-1.796-.88-7.583 15.493 1.796.88Zm9.384-15.481 7.361 15.492 1.807-.858-7.361-15.493-1.807.859Zm6.458 16.92h-5.94v2h5.94v-2Zm-6.94 1v9.714h2V27.99h-2Zm-1.319-17.93a1 1 0 0 1 1.801.01l1.807-.859c-1.078-2.268-4.3-2.287-5.404-.031l1.796.88Zm-6.685 16.93a1 1 0 0 1-.898-1.439l-1.796-.879c-.976 1.993.475 4.319 2.694 4.319v-2Zm5.03 18.308a1.44 1.44 0 0 0 1.44-1.44h-2c0-.31.25-.56.56-.56v2ZM69.373 25.56a1 1 0 0 1-.903 1.429v2c2.204 0 3.655-2.297 2.71-4.288l-1.807.859ZM23.035 80.817c0-19.618 15.903-35.521 35.52-35.521v-2c-20.721 0-37.52 16.799-37.52 37.52h2Z" fill="#2AF895"/><path d="M39.3 88.164a21.31 21.31 0 0 1-1.189-7.038c0-11.798 9.575-21.362 21.386-21.362 11.81 0 21.385 9.564 21.385 21.362 0 2.466-.419 4.835-1.188 7.038" fill="url('#paint0_linear_305_8609')" fill-opacity=".5"/><path d="M39.3 88.164a21.31 21.31 0 0 1-1.189-7.038c0-11.798 9.575-21.362 21.386-21.362 11.81 0 21.385 9.564 21.385 21.362 0 2.466-.419 4.835-1.188 7.038" stroke="#2AF895" stroke-width="2" stroke-miterlimit="10" stroke-linecap="round" stroke-linejoin="round"/><path d="M64.281 88.303c1.41-2.553.828-6.053-2.684-7.293-2.576-.91-4.487-1.728-5.757-2.723-2.212-1.733-1.403-6.182 1.852-7.161 3.544-1.067 5.844 1.052 5.844 1.052l.316.244M59.705 67.017v3.55" stroke="#2AF895" stroke-width="4" stroke-miterlimit="10" stroke-linecap="round" stroke-linejoin="round"/><path d="M81.148 61.107A29.352 29.352 0 0 1 89 81.127c0 2.425-.294 4.782-.847 7.037M30.812 88.055a29.51 29.51 0 0 1-.82-6.928c0-16.278 13.21-29.473 29.504-29.473a29.4 29.4 0 0 1 14.05 3.55" stroke="#07572E" stroke-width="2" stroke-miterlimit="10" stroke-linecap="round" stroke-linejoin="round"/><path d="M2.133 153.225V76.957a8.41 8.41 0 0 0 8.068 6.035H125.34a9 9 0 0 1 9 9v61.233c0 5.523-4.477 10-10 10H12.133c-5.523 0-10-4.477-10-10Z" fill="url('#paint1_linear_305_8609')"/><path d="M100.221 123.109c0-7.059 5.722-12.781 12.78-12.781h23.867a6 6 0 0 1 6 6v13.561a6 6 0 0 1-6 6h-23.867c-7.058 0-12.78-5.722-12.78-12.78Z" fill="url('#paint2_linear_305_8609')"/><path d="M117.581 124.387a4.646 4.646 0 0 0-3.157-5.763 4.644 4.644 0 1 0-2.612 8.916 4.65 4.65 0 0 0 5.769-3.153ZM92.507 66.06h15.111c4.64 0 8.402 3.758 8.402 8.393v8.393H10.527c-4.64 0-8.402-3.758-8.402-8.393 0-4.635 3.762-8.393 8.402-8.393h7.599M134.382 110.328V91.24c0-4.636-3.762-8.394-8.402-8.394h-9.675" stroke="#44494F" stroke-miterlimit="10" stroke-linecap="round" stroke-linejoin="round"/><path d="M2.125 74.736v80.193c0 4.635 3.762 8.393 8.402 8.393H125.98c4.64 0 8.402-3.758 8.402-8.393v-19.023" stroke="#44494F" stroke-miterlimit="10" stroke-linecap="round" stroke-linejoin="round"/><path d="M113.114 110.452c-6.984 0-12.645 5.656-12.645 12.632s5.661 12.632 12.645 12.632h25.516c2.346 0 4.248-1.9 4.248-4.244v-16.776a4.246 4.246 0 0 0-4.248-4.244h-15.977" stroke="#44494F" stroke-miterlimit="10" stroke-linecap="round" stroke-linejoin="round"/><defs><linearGradient id="paint0_linear_305_8609" x1="59.706" y1="59.916" x2="59.706" y2="88.317" gradientUnits="userSpaceOnUse"><stop stop-color="#06AA53"/><stop offset="1" stop-color="#024421"/></linearGradient><linearGradient id="paint1_linear_305_8609" x1="69.527" y1="171.789" x2="69.527" y2="69.857" gradientUnits="userSpaceOnUse"><stop stop-color="#16171A"/><stop offset="1" stop-color="#2D3135"/></linearGradient><linearGradient id="paint2_linear_305_8609" x1="142.868" y1="122.754" x2="100.221" y2="123.108" gradientUnits="userSpaceOnUse"><stop stop-color="#262A2D"/><stop offset=".303" stop-color="#212427"/><stop offset="1" stop-color="#16171A"/></linearGradient></defs></svg>