<svg width="153" height="170" fill="none" xmlns="http://www.w3.org/2000/svg"><path d="M33.836 6.406v121.672a4 4 0 0 0 2.108 3.524l54.863 29.45a4.003 4.003 0 0 0 1.892.476h12.085a4 4 0 0 0 4-4V6.406a4 4 0 0 0-4-4H37.836a4 4 0 0 0-4 4Z" fill="url('#paint0_linear_305_8552')"/><path fill="#41484C" fill-opacity=".5" d="M33.629 96.227h75.26v7.217h-75.26z"/><path fill="#199258" fill-opacity=".3" d="M33.629 12.028h75.26v7.217h-75.26z"/><path fill="url('#paint1_linear_305_8552')" fill-opacity=".5" d="M33.629 40.094h75.26V85h-75.26z"/><path fill="#41484C" d="M33.629 25.66h75.26v7.217h-75.26z"/><path fill="#2AF895" d="M33.629 32.877h75.26v7.217h-75.26z"/><path fill="#11452C" d="M33.629 77.783h75.26V85h-75.26z"/><path d="M52.654 142.05c0 3.027-8.037 5.509-17.942 5.509-9.904 0-17.966-2.482-17.966-5.509 0-3.028 8.036-5.51 17.966-5.51 9.93 0 17.942 2.482 17.942 5.51Z" fill="url('#paint2_linear_305_8552')"/><path d="M55.367 143.017v8.289c0 4.02-9.24 7.246-20.654 7.246-11.415 0-20.654-3.226-20.654-7.246v-8.289c0 3.996 9.239 7.247 20.654 7.247s20.654-3.251 20.654-7.247Z" fill="url('#paint3_linear_305_8552')"/><path d="M55.367 153.664v8.288c0 4.02-9.24 7.246-20.654 7.246-11.415 0-20.654-3.226-20.654-7.246v-8.288c0 3.995 9.239 7.246 20.654 7.246s20.654-3.251 20.654-7.246Z" fill="url('#paint4_linear_305_8552')"/><path d="M81.882 120.385c0 3.028-8.036 5.509-17.941 5.509s-17.967-2.481-17.967-5.509c0-3.027 8.037-5.509 17.967-5.509 9.93 0 17.941 2.482 17.941 5.509Z" fill="url('#paint5_linear_305_8552')"/><path d="M84.595 121.378v8.289c0 4.02-9.24 7.246-20.654 7.246-11.415 0-20.655-3.226-20.655-7.246v-8.289c0 3.995 9.24 7.246 20.655 7.246 11.415 0 20.654-3.251 20.654-7.246Z" fill="url('#paint6_linear_305_8552')"/><path d="M84.595 140.288c0 4.02-9.24 7.246-20.654 7.246a54.97 54.97 0 0 1-4.633-.199v-2.655c0-2.333-.947-4.293-2.559-5.931 2.227.298 4.658.472 7.192.472 11.39 0 20.654-3.251 20.654-7.247v8.314Z" fill="url('#paint7_linear_305_8552')"/><path d="M84.595 142.844v8.263c0 4.021-9.24 7.247-20.654 7.247-1.613 0-3.148-.075-4.633-.199v-8.264c1.485.125 3.046.199 4.633.199 11.39 0 20.654-3.251 20.654-7.246Z" fill="url('#paint8_linear_305_8552')"/><path d="M84.595 153.664v8.288c0 4.02-9.24 7.246-20.654 7.246a53.82 53.82 0 0 1-8.293-.62c2.253-1.688 3.635-3.847 3.635-6.601v-1.266c1.484.124 3.045.199 4.632.199 11.39 0 20.654-3.251 20.654-7.246h.026Z" fill="url('#paint9_linear_305_8552')"/><path d="M120.054 94.626v-11.23m0 11.23 2.067-2.008m-2.067 2.008-2.068-2.008m2.068-9.222-2.068 2.005m2.068-2.005 2.067 2.005M120.054 78.99V20.85m0 58.14 2.067-2.009m-2.067 2.009-2.068-2.009m2.068-56.132-2.068 2.005m2.068-2.005 2.067 2.005" stroke="#44494F" stroke-linecap="round" stroke-linejoin="round"/><path fill="#41484C" d="M112.197 96.227h14.886v7.217h-14.886z"/><path d="M117.896 101.84c-.609 0-1.224-.183-1.564-.449l.302-.675c.324.238.807.404 1.267.404.527 0 .741-.177.741-.416 0-.725-2.233-.227-2.233-1.666 0-.66.527-1.208 1.619-1.208.483 0 .976.117 1.333.344l-.274.68a2.158 2.158 0 0 0-1.065-.304c-.527 0-.73.2-.73.443 0 .715 2.234.222 2.234 1.645 0 .648-.533 1.202-1.63 1.202ZM120.133 101.773v-3.876h.889v3.145h1.926v.731h-2.815Z" fill="#08090A"/><path d="M33.836 130.47V6.406a4 4 0 0 1 4-4h66.948a4 4 0 0 1 4 4v151.122a4 4 0 0 1-4 4H90.866" stroke="#44494F" stroke-linecap="round" stroke-linejoin="round"/><path fill="#2AF895" d="M112.197 12.028h14.886v7.217h-14.886z"/><path d="M117.196 17.642v-3.254h-1.278v-.756h3.481v.756h-1.278v3.254h-.925ZM121.626 13.632c1.067 0 1.735.556 1.735 1.455 0 .893-.668 1.45-1.735 1.45h-.805v1.105h-.924v-4.01h1.729Zm-.051 2.148c.565 0 .85-.258.85-.693 0-.441-.285-.699-.85-.699h-.754v1.392h.754Z" fill="#08090A"/><path stroke="#44494F" stroke-linecap="round" stroke-dasharray="2 2" d="M112.697 81.293h13.887"/><path d="M128.056 91.165c-1.347 0-2.349-.97-2.349-2.681 0-1.712 1.002-2.682 2.349-2.682 1.355 0 2.349.97 2.349 2.682 0 1.71-.994 2.681-2.349 2.681Zm0-1.015c.634 0 1.073-.489 1.073-1.666 0-1.178-.439-1.667-1.073-1.667-.626 0-1.065.489-1.065 1.667 0 1.177.439 1.666 1.065 1.666ZM131.65 89.698c.439 0 .752.29.752.712 0 .192-.031.333-.212.74l-.446 1.067h-.775l.344-1.178a.642.642 0 0 1-.422-.63c0-.429.328-.71.759-.71ZM134.85 87.84c1.621 0 2.263.688 2.263 1.607 0 .918-.712 1.718-2.278 1.718-.76 0-1.558-.2-2.091-.555l.501-.919c.415.296.987.467 1.558.467.635 0 1.026-.252 1.026-.674 0-.408-.282-.674-1.276-.674h-1.402l.282-2.92h3.344v.964h-2.287l-.086.985h.446ZM138.82 88.691c-.799 0-1.362-.556-1.362-1.43 0-.874.563-1.43 1.362-1.43.799 0 1.355.549 1.355 1.43 0 .882-.556 1.43-1.355 1.43Zm-.478 2.385 3.743-5.185h.932l-3.743 5.185h-.932Zm.478-2.992c.344 0 .572-.267.572-.823 0-.555-.228-.822-.572-.822-.337 0-.572.274-.572.822 0 .549.235.823.572.823Zm3.719 3.052c-.791 0-1.354-.556-1.354-1.43 0-.874.563-1.43 1.354-1.43.799 0 1.363.556 1.363 1.43 0 .874-.564 1.43-1.363 1.43Zm0-.608c.345 0 .572-.274.572-.822 0-.548-.227-.822-.572-.822-.336 0-.571.266-.571.822 0 .555.235.822.571.822ZM128.672 49.596c1.018.156 1.535.764 1.535 1.567 0 .92-.735 1.762-2.343 1.762-.792 0-1.608-.21-2.157-.585l.509-.967c.428.312 1.026.492 1.616.492.654 0 1.058-.258 1.058-.702 0-.413-.315-.67-1.058-.67h-.598v-.835l1.164-1.27h-2.408v-1.014h3.959v.819l-1.277 1.403ZM132.042 50.32c-.824 0-1.406-.584-1.406-1.504s.582-1.505 1.406-1.505 1.397.577 1.397 1.505c0 .928-.573 1.505-1.397 1.505Zm-.493 2.511 3.862-5.457h.961l-3.862 5.457h-.961Zm.493-3.15c.355 0 .59-.28.59-.865s-.235-.865-.59-.865c-.348 0-.59.288-.59.865s.242.865.59.865Zm3.838 3.213c-.816 0-1.398-.585-1.398-1.505 0-.92.582-1.505 1.398-1.505.824 0 1.405.585 1.405 1.505 0 .92-.581 1.505-1.405 1.505Zm0-.64c.355 0 .589-.288.589-.865s-.234-.866-.589-.866c-.348 0-.59.281-.59.866s.242.865.59.865Z" fill="#676C72"/><defs><linearGradient id="paint0_linear_305_8552" x1="53.499" y1="138.5" x2="113.32" y2=".738" gradientUnits="userSpaceOnUse"><stop stop-color="#040606"/><stop offset=".105" stop-color="#08090A"/><stop offset="1" stop-color="#2D3135"/></linearGradient><linearGradient id="paint1_linear_305_8552" x1="72.733" y1="40.094" x2="72.733" y2="85" gradientUnits="userSpaceOnUse"><stop stop-color="#06AA53"/><stop offset="1" stop-color="#024421"/></linearGradient><linearGradient id="paint2_linear_305_8552" x1="50.016" y1="169.99" x2="50.016" y2="114.876" gradientUnits="userSpaceOnUse"><stop stop-color="#16171A"/><stop offset="1" stop-color="#2D3135"/></linearGradient><linearGradient id="paint3_linear_305_8552" x1="50.016" y1="169.99" x2="50.016" y2="114.876" gradientUnits="userSpaceOnUse"><stop stop-color="#16171A"/><stop offset="1" stop-color="#2D3135"/></linearGradient><linearGradient id="paint4_linear_305_8552" x1="50.016" y1="169.99" x2="50.016" y2="114.876" gradientUnits="userSpaceOnUse"><stop stop-color="#16171A"/><stop offset="1" stop-color="#2D3135"/></linearGradient><linearGradient id="paint5_linear_305_8552" x1="50.016" y1="169.99" x2="50.016" y2="114.876" gradientUnits="userSpaceOnUse"><stop stop-color="#16171A"/><stop offset="1" stop-color="#2D3135"/></linearGradient><linearGradient id="paint6_linear_305_8552" x1="50.016" y1="169.99" x2="50.016" y2="114.876" gradientUnits="userSpaceOnUse"><stop stop-color="#16171A"/><stop offset="1" stop-color="#2D3135"/></linearGradient><linearGradient id="paint7_linear_305_8552" x1="50.016" y1="169.99" x2="50.016" y2="114.876" gradientUnits="userSpaceOnUse"><stop stop-color="#16171A"/><stop offset="1" stop-color="#2D3135"/></linearGradient><linearGradient id="paint8_linear_305_8552" x1="50.016" y1="169.99" x2="50.016" y2="114.876" gradientUnits="userSpaceOnUse"><stop stop-color="#16171A"/><stop offset="1" stop-color="#2D3135"/></linearGradient><linearGradient id="paint9_linear_305_8552" x1="50.016" y1="169.99" x2="50.016" y2="114.876" gradientUnits="userSpaceOnUse"><stop stop-color="#16171A"/><stop offset="1" stop-color="#2D3135"/></linearGradient></defs></svg>