<svg width="177" height="157" fill="none" xmlns="http://www.w3.org/2000/svg"><path d="M173.977 117.712H3.021c-1.4 0-2.521-1.12-2.521-2.509v-24.91h175.999v24.91a2.509 2.509 0 0 1-2.522 2.509Zm-18.945-11.604a2.135 2.135 0 0 0 2.133-2.126 2.134 2.134 0 0 0-2.133-2.126h-4.001a2.134 2.134 0 0 0-2.134 2.126c0 1.172.961 2.126 2.134 2.126h4.001Zm-17.23 0c1.189 0 2.092-.97 2.092-2.126s-.903-2.126-2.092-2.126h-4.042c-1.14 0-2.093.962-2.093 2.126s.953 2.126 2.093 2.126h4.042Zm-17.271 0a2.135 2.135 0 0 0 2.133-2.126 2.134 2.134 0 0 0-2.133-2.126h-4.002a2.134 2.134 0 0 0-2.133 2.126c0 1.172.961 2.126 2.133 2.126h4.002ZM.5 86.04V10.186a2.508 2.508 0 0 1 2.521-2.509h170.956c1.4 0 2.522 1.12 2.522 2.509V86.04H.5Z" fill="url('#paint0_linear_305_8511')" stroke="#44494F"/><path fill-rule="evenodd" clip-rule="evenodd" d="M56.264 131.873v-10.937h64.47v10.937h-64.47Z" fill="url('#paint1_linear_305_8511')"/><path fill-rule="evenodd" clip-rule="evenodd" d="M150.133 156.023H26.908c-1.143 0-2.205-.651-2.695-1.667a2.902 2.902 0 0 1 .327-3.171l11.963-15.409a3.081 3.081 0 0 1 2.409-1.179h99.176a3.08 3.08 0 0 1 2.409 1.179l11.759 15.165a2.91 2.91 0 0 1 .858 2.073c0 1.667-1.307 3.009-2.981 3.009Z" fill="url('#paint2_linear_305_8511')"/><path d="M41.424 46.345v-11.78h5.615m-5.615 16.85v25.928h5.615m0-42.778h5.616v42.778h-5.616m0-42.778V28.75m0 48.593v14.666M25.984 109.375 61.165 93.7l4.738 6.675 50.641-24.761m28.791-15.862 15.643-8.626m0 0-8.191-1.596m8.191 1.596-3.562 7.624" stroke="#2AF895" stroke-width="2" stroke-linecap="round" stroke-linejoin="round"/><path d="M73.374 51.137V39.954h-11.68v11.183h11.68Z" fill="url('#paint3_linear_305_8511')" fill-opacity=".5"/><path d="M67.534 51.137h5.84V39.954h-5.84m0 11.183h-5.84V39.954h5.84m0 11.183V75.74m0-35.786v-23.56M93.793 59.935V47.856h-5.69m5.69 16.254v5.964h-5.69m0 0h-5.69V47.856h5.69m0 22.218v6.412m0-28.63V18.631" stroke="#2AF895" stroke-width="2" stroke-linecap="round" stroke-linejoin="round"/><path d="M114.812 19.793v-5.667h-11.98v5.667h11.98Z" fill="url('#paint4_linear_305_8511')" fill-opacity=".5"/><path d="M108.822 14.126h-5.99v5.667h5.99m0-5.667h5.99v5.667h-5.99m0-5.667V1.75m0 18.043v46.373" stroke="#2AF895" stroke-width="2" stroke-linecap="round" stroke-linejoin="round"/><path d="M135.23 67.515v-33.7h-11.38v33.7h11.38Z" fill="url('#paint5_linear_305_8511')" fill-opacity=".5"/><path d="M129.54 33.815h-5.69v33.7h5.69m0-33.7h5.69v33.7h-5.69m0-33.7V28m0 39.515V96.74" stroke="#2AF895" stroke-width="2" stroke-linecap="round" stroke-linejoin="round"/><defs><linearGradient id="paint0_linear_305_8511" x1="90.228" y1="119.83" x2="90.228" y2="7.177" gradientUnits="userSpaceOnUse"><stop stop-color="#16171A"/><stop offset="1" stop-color="#2D3135"/></linearGradient><linearGradient id="paint1_linear_305_8511" x1="89.129" y1="132.032" x2="89.129" y2="120.936" gradientUnits="userSpaceOnUse"><stop stop-color="#2D3135"/><stop offset="1" stop-color="#2D3135"/></linearGradient><linearGradient id="paint2_linear_305_8511" x1="89.762" y1="156.335" x2="89.762" y2="134.597" gradientUnits="userSpaceOnUse"><stop stop-color="#2D3135"/><stop offset="1" stop-color="#16171A"/></linearGradient><linearGradient id="paint3_linear_305_8511" x1="67.534" y1="40.55" x2="67.534" y2="51.883" gradientUnits="userSpaceOnUse"><stop stop-color="#06AA53"/><stop offset="1" stop-color="#024421"/></linearGradient><linearGradient id="paint4_linear_305_8511" x1="108.822" y1="7.339" x2="108.822" y2="39.058" gradientUnits="userSpaceOnUse"><stop stop-color="#06AA53"/><stop offset="1" stop-color="#024421"/></linearGradient><linearGradient id="paint5_linear_305_8511" x1="129.54" y1="33.965" x2="129.54" y2="67.813" gradientUnits="userSpaceOnUse"><stop stop-color="#06AA53"/><stop offset="1" stop-color="#024421"/></linearGradient></defs></svg>