<svg width="106" height="35" fill="none" xmlns="http://www.w3.org/2000/svg"><path d="M14.869 18.336h-6.32L2.083 11.81a1.102 1.102 0 0 1-.004-1.542l8.291-8.467h6.51l-1.967 1.944-7.227 7.296 7.135 7.296m-2.55-7.28h6.32l6.465 6.527c.42.425.423 1.115.004 1.542l-8.291 8.466h-6.51l1.968-1.944 7.226-7.295-7.134-7.296m49.738 5.059V12.51h-3.04V7.423H54.83v5.087h-2.598v3.606h2.598v5.902c0 3.282.636 5.693 4.602 5.619l2.49-.05v-3.38h-1.236c-1.762 0-1.664-1.045-1.664-2.984l-.007-5.107h3.041Zm42.176 0V12.51h-3.041V7.423h-4.185v5.087h-2.598v3.606h2.598v5.902c0 3.282.636 5.693 4.602 5.619l2.489-.05v-3.38h-1.235c-1.763 0-1.664-1.045-1.664-2.984l-.007-5.107h3.041ZM73.998 14.22a5.269 5.269 0 0 0-1.741-1.405c-.786-.387-1.707-.582-2.735-.582-1.259 0-2.388.315-3.353.936-.965.621-1.73 1.499-2.273 2.607-.541 1.105-.816 2.403-.816 3.858 0 1.456.289 2.677.86 3.79.571 1.117 1.364 2.007 2.356 2.646.993.64 2.126.965 3.367.965.938 0 1.794-.206 2.544-.613a4.559 4.559 0 0 0 1.483-1.27v1.642c0 1.018-.263 1.799-.781 2.32-.52.52-1.309.783-2.348.783-.894 0-1.598-.206-2.09-.614-.404-.332-.755-.77-.838-1.695h-4.062c.038 1.295.413 2.168.94 2.932.594.857 1.427 1.527 2.48 1.99 1.044.457 2.255.689 3.599.689 2.256 0 4.052-.576 5.336-1.711 1.293-1.141 1.949-2.74 1.949-4.749V12.51h-3.876v1.711Zm-.742 7.417c-.267.56-.644 1-1.122 1.304-.477.304-1.053.459-1.713.459-.954 0-1.696-.33-2.268-1.009-.571-.675-.86-1.603-.86-2.757 0-1.154.289-2.082.86-2.759.565-.67 1.328-1.008 2.268-1.008.939 0 1.769.344 2.352 1.024.59.685.888 1.618.888 2.77 0 .746-.136 1.41-.405 1.976ZM50.924 7.423h-4.39v3.634h4.39V7.423Zm41.527 7.354a6.806 6.806 0 0 0-2.484-1.88c-.98-.44-2.084-.664-3.277-.664-1.462 0-2.781.337-3.922 1.002a7.202 7.202 0 0 0-2.697 2.755c-.647 1.161-.975 2.509-.975 4.004 0 1.494.319 2.93.945 4.11a6.745 6.745 0 0 0 2.687 2.759c1.15.645 2.503.973 4.019.973 1.86 0 3.44-.476 4.695-1.414 1.209-.902 2.04-2.175 2.493-3.769h-4.242c-.223.542-.537 1.004-.987 1.33-.532.383-1.22.578-2.043.578-.715 0-1.327-.177-1.82-.525-.495-.347-.873-.861-1.122-1.529a5.935 5.935 0 0 1-.317-1.36H94.01l.02-.134c.19-1.216.142-2.369-.143-3.425a7.405 7.405 0 0 0-1.436-2.81Zm-8.98 3.578c.065-.306.153-.626.264-.917.258-.676.632-1.197 1.11-1.544.477-.348 1.07-.524 1.762-.524.869 0 1.582.287 2.12.85.509.535.798 1.267.86 2.135h-6.115ZM50.837 12.51h-4.213v15.077h4.213V12.51Zm-8.91 4.526c.77-.445 1.388-.998 1.838-1.651a4.362 4.362 0 0 0 .772-2.523c0-1.74-.64-3.1-1.902-4.039-1.248-.928-2.964-1.399-5.103-1.399H29.8v20.164h8.042c2.253 0 4.056-.532 5.36-1.582 1.315-1.06 1.982-2.542 1.982-4.409 0-1.136-.314-2.114-.932-2.906-.554-.707-1.335-1.263-2.324-1.655Zm-7.943-5.978h3.212c1.008 0 1.768.199 2.262.589.488.385.726.892.726 1.547 0 .656-.238 1.188-.726 1.575-.494.39-1.255.588-2.262.588h-3.212v-4.299ZM40.03 23.27c-.557.454-1.407.683-2.526.683h-3.521V19.02h3.52c1.12 0 1.97.222 2.53.657.554.434.823 1.008.823 1.755 0 .786-.27 1.387-.826 1.84Z" fill="#03AAC1"/></svg>