<svg width="82" height="32" fill="none" xmlns="http://www.w3.org/2000/svg"><g clip-path="url('#clip0_20_2513')"><path d="M58.444 23.395V2.353h4.236v21.042h-4.236Z" fill="#F7A600"/><path d="M9.08 29.645H0V8.603h8.716c4.235 0 6.703 2.306 6.703 5.91 0 2.335-1.585 3.844-2.683 4.346 1.31.59 2.986 1.92 2.986 4.729 0 3.93-2.77 6.057-6.642 6.057Zm-.7-17.377H4.236v4.847h4.143c1.798 0 2.803-.975 2.803-2.424 0-1.447-1.005-2.423-2.802-2.423Zm.273 8.541H4.237v5.173h4.418c1.92 0 2.833-1.182 2.833-2.601s-.915-2.572-2.833-2.572h-.002Zm19.989.208v8.628h-4.206v-8.628L17.915 8.603h4.601l4.053 8.482 3.992-8.482h4.6l-6.52 12.414Zm18.528 8.628h-9.08V8.603h8.714c4.236 0 6.704 2.306 6.704 5.91 0 2.335-1.585 3.844-2.682 4.346 1.31.59 2.986 1.92 2.986 4.729 0 3.93-2.771 6.057-6.642 6.057Zm-.7-17.377h-4.145v4.847h4.144c1.798 0 2.804-.975 2.804-2.424 0-1.447-1.006-2.423-2.804-2.423Zm.273 8.541h-4.419v5.173h4.419c1.92 0 2.833-1.182 2.833-2.601s-.912-2.572-2.833-2.572Zm29.589-8.54v17.378h-4.236V12.268h-5.667V8.603H82v3.665l-5.668.001Z" fill="#fff"/></g><defs><clipPath id="clip0_20_2513"><path fill="#fff" d="M0 0h82v32H0z"/></clipPath></defs></svg>