<svg aria-hidden="true" style="width:0;height:0;position:absolute;overflow:hidden" xmlns="http://www.w3.org/2000/svg"><defs><symbol id="icon-arrow-right" viewBox="0 0 32 32"><path d="m32 16-7.111-4.106v8.211L32 15.999zm-32 .711h25.6v-1.422H0v1.422z"/></symbol><symbol id="icon-arrow-left" viewBox="0 0 32 32"><path d="m0 16 7.111 4.106v-8.211L0 16.001zm32-.711H6.4v1.422H32v-1.422z"/></symbol><symbol id="icon-play" viewBox="0 0 32 32"><path d="M5.161 32V0l21.677 16L5.161 32z"/></symbol><symbol id="icon-ig-v1" viewBox="0 0 32 32"><path d="M6.858 0A6.856 6.856 0 0 0 0 6.855v18.287A6.858 6.858 0 0 0 6.858 32h18.287A6.861 6.861 0 0 0 32 25.143V6.856A6.863 6.863 0 0 0 25.145.001H6.858zm20.259 6.866a1.978 1.978 0 0 1-1.975 1.976 1.975 1.975 0 0 1-1.397-3.373 1.977 1.977 0 0 1 2.794 0c.37.37.578.873.578 1.397zm-11.113 3.655a5.477 5.477 0 1 0 0 10.954 5.477 5.477 0 0 0 0-10.954zM7.89 15.999A8.111 8.111 0 1 1 24.112 16 8.111 8.111 0 0 1 7.89 16z"/></symbol><symbol id="icon-tg-v1" viewBox="0 0 32 32"><path d="M6.857 0A6.857 6.857 0 0 0 0 6.857v18.286A6.857 6.857 0 0 0 6.857 32h18.286A6.857 6.857 0 0 0 32 25.143V6.857A6.857 6.857 0 0 0 25.143 0H6.857zm16.567 10.88c-.24 2.528-1.28 8.672-1.808 11.504-.224 1.2-.672 1.6-1.088 1.648-.928.08-1.632-.608-2.528-1.2-1.408-.928-2.208-1.504-3.568-2.4-1.584-1.04-.56-1.616.352-2.544.24-.24 4.336-3.968 4.416-4.304a.32.32 0 0 0-.08-.288c-.096-.08-.224-.048-.336-.032-.144.032-2.384 1.52-6.752 4.464-.64.432-1.216.656-1.728.64-.576-.016-1.664-.32-2.48-.592-1.008-.32-1.792-.496-1.728-1.056.032-.288.432-.576 1.184-.88 4.672-2.032 7.776-3.376 9.328-4.016 4.448-1.856 5.36-2.176 5.968-2.176.128 0 .432.032.624.192.16.128.208.304.224.432-.016.096.016.384 0 .608z"/></symbol><symbol id="icon-yt-v1" viewBox="0 0 32 32"><path d="m19.43 15.722-4.502-2.387c-.327-.152-.595.018-.595.38v4.571c0 .362.268.532.595.38l4.5-2.387c.328-.153.328-.403.002-.557zM32 6.857A6.857 6.857 0 0 0 25.143 0H6.857A6.857 6.857 0 0 0 0 6.857v18.286A6.857 6.857 0 0 0 6.857 32h18.286A6.857 6.857 0 0 0 32 25.143V6.857zM16 23.643c-8.19 0-10.619 0-10.619-7.643S7.81 8.357 16 8.357s10.619 0 10.619 7.643S24.19 23.643 16 23.643z"/></symbol><symbol id="icon-dc" viewBox="0 0 32 32"><path d="M25.145.005A6.857 6.857 0 0 1 32 6.862v18.279a6.857 6.857 0 0 1-6.857 6.857H6.857A6.857 6.857 0 0 1 0 25.141V6.857A6.857 6.857 0 0 1 6.859 0l18.286.004zm-5.591 7.199h-.053l-.343.333c3.503 1.004 5.198 2.57 5.198 2.57C22.1 8.991 20.061 8.43 18.03 8.202c-1.464-.222-2.936-.104-4.176 0h-.343c-.792 0-2.48.339-4.743 1.232-.785.339-1.24.561-1.24.561s1.688-1.677 5.422-2.57l-.23-.222s-2.823-.111-5.87 2.12c0 0-3.047 5.251-3.047 11.72 0 0 1.688 2.903 6.32 3.013 0 0 .679-.887 1.359-1.669-2.599-.783-3.615-2.348-3.615-2.348s.23.111.567.333h.099c.053 0 .08.026.105.053v.013c.027.026.053.045.099.045.561.228 1.115.45 1.571.671.792.333 1.801.671 3.041.894 1.57.228 3.37.333 5.422 0 1.009-.228 2.025-.443 3.041-.894.654-.333 1.464-.665 2.355-1.232 0 0-1.009 1.565-3.721 2.348a25.742 25.742 0 0 0 1.339 1.669c4.637-.104 6.438-3.007 6.537-2.883 0-6.463-3.068-11.72-3.068-11.72-2.757-2.029-5.344-2.106-5.798-2.106l.092-.033.009.006zm.284 7.371c1.188 0 2.144.998 2.144 2.224 0 1.24-.963 2.237-2.144 2.237-1.188 0-2.144-.998-2.144-2.224 0-1.24.962-2.237 2.144-2.237zm-7.671 0c1.18 0 2.138.998 2.138 2.224 0 1.24-.963 2.237-2.144 2.237-1.188 0-2.151-.998-2.151-2.224 0-1.24.963-2.237 2.151-2.237h.006z"/></symbol><symbol id="icon-ig-v2" viewBox="0 0 32 32"><path d="M20 16a4 4 0 1 1-8 0 4 4 0 0 1 8 0zM22.667 10.667a1.333 1.333 0 1 1-2.667 0 1.333 1.333 0 0 1 2.667 0z"/><path d="M32 0H0v32h32V0zm-6.868 19.788c-.045.978-.2 1.646-.427 2.23a4.697 4.697 0 0 1-2.687 2.687c-.584.227-1.252.382-2.23.427-.98.045-1.293.055-3.788.055s-2.808-.011-3.788-.055c-.978-.045-1.646-.2-2.23-.427a4.5 4.5 0 0 1-1.627-1.06 4.513 4.513 0 0 1-1.06-1.627c-.227-.584-.383-1.252-.427-2.23-.045-.98-.056-1.293-.056-3.788s.011-2.808.055-3.788c.044-.978.2-1.646.427-2.23a4.513 4.513 0 0 1 1.06-1.627 4.5 4.5 0 0 1 1.627-1.06c.584-.227 1.252-.382 2.23-.427.98-.045 1.293-.055 3.788-.055s2.808.011 3.788.056c.978.044 1.646.2 2.23.427a4.505 4.505 0 0 1 1.627 1.06 4.513 4.513 0 0 1 1.06 1.627c.227.584.383 1.252.427 2.23.045.98.055 1.293.055 3.788s-.011 2.808-.055 3.788z"/></symbol><symbol id="icon-yt-v2" viewBox="0 0 32 32"><path d="M14.007 18.998 19.212 16l-5.205-2.998v5.995z"/><path d="M32 0H0v32h32V0zm-6.002 16.016s0 3.245-.412 4.809a2.504 2.504 0 0 1-1.762 1.762c-1.565.412-7.823.412-7.823.412s-6.242 0-7.823-.428a2.504 2.504 0 0 1-1.762-1.762C6.004 19.261 6.004 16 6.004 16s0-3.245.412-4.809a2.557 2.557 0 0 1 1.762-1.779C9.743 9 16.001 9 16.001 9s6.259 0 7.823.428c.856.23 1.532.906 1.762 1.762.428 1.565.412 4.826.412 4.826z"/></symbol><symbol id="icon-tg-v2" viewBox="0 0 32 32"><path d="m22.589 11.035-8.558 7.151a.428.428 0 0 0-.154.277l-.086.726-.236 2.041c.002.025-.005.049-.021.069s-.038.031-.062.033-.048-.005-.067-.021a.098.098 0 0 1-.033-.064l-.665-2.041-.687-2.087a.426.426 0 0 1 .198-.498l10.106-5.92c.233-.139.471.161.266.333z"/><path d="M32 0H0v32h32V0zm-6.02 9.262-3.124 13.802c-.147.647-.969.94-1.545.545l-4.716-3.2-2.402 2.271a.82.82 0 0 1-.743.204c-.131-.029-.253-.09-.356-.176s-.182-.197-.232-.322l-1.735-5.091-4.649-1.273a.602.602 0 0 1-.475-.563.604.604 0 0 1 .421-.603l18.291-6.589c.696-.244 1.416.32 1.264.995z"/></symbol><symbol id="icon-close" viewBox="0 0 32 32"><path d="M3.825 0 16 12.175 28.175 0 32 3.825 19.825 16 32 28.175 28.175 32 16 19.825 3.825 32 0 28.175 12.175 16 0 3.825 3.825 0z"/></symbol></defs></svg>