<svg width="109" height="95" fill="none" xmlns="http://www.w3.org/2000/svg"><g filter="url('#filter0_d_20_2487')"><path d="M87.051 18.436c-.76-.63-1.505-1.284-2.28-1.892-5.13-4.064-10.902-6.688-17.341-7.84a37.354 37.354 0 0 0-9.031-.522c-8.938.6-16.775 3.87-23.478 9.826-4.011 3.566-7.122 7.81-9.38 12.684-.124.265-.264.35-.551.35-3.142-.007-6.285-.007-9.427 0-.326 0-.427-.015-.271-.381 3.755-8.985 9.838-15.946 18.186-20.898 4.67-2.772 9.706-4.579 15.075-5.303 13.663-1.845 25.635 1.853 35.83 11.22.907.833 1.745 1.736 2.575 2.64.039.039.062.078.093.116Z" fill="#00B355"/></g><g filter="url('#filter1_d_20_2487')"><path d="M16.191 65.158h.388c3.163 0 6.327.008 9.498-.008.333 0 .496.102.66.39 3.287 6.006 7.823 10.829 13.614 14.451 4.513 2.829 9.413 4.651 14.685 5.415 8.444 1.223 16.453-.171 23.99-4.2a37.686 37.686 0 0 0 7.753-5.523c.086-.078.17-.156.272-.202-4.621 5.227-10.15 9.146-16.655 11.654-6.497 2.51-13.212 3.358-20.12 2.595-17.771-1.971-29.37-14.039-34.085-24.572Z" fill="#FF494B"/></g><g filter="url('#filter2_d_20_2487')"><path d="M33.279 22.63c2.614-3.056 5.67-5.567 9.13-7.578 4.282-2.487 8.882-4.085 13.793-4.623 11.31-1.24 21.193 2.011 29.586 9.737 3.243 2.986 5.795 6.51 7.773 10.463.202.406.202.406-.233.406-3.196 0-6.384 0-9.58.008-.264 0-.411-.078-.55-.312-4.826-8.163-11.792-13.535-21.023-15.586-10.72-2.385-20.317.18-28.702 7.314l-.194.171Z" fill="#FF494B"/></g><g filter="url('#filter3_d_20_2487')"><path d="M92.638 65.167c-5.917 9.736-14.246 16.024-25.413 17.962-13.33 2.312-24.598-1.922-33.866-11.69.163-.038.24.086.334.172 4.831 4.171 10.392 6.825 16.712 7.658 10.314 1.362 19.325-1.556 26.987-8.631 1.683-1.549 3.14-3.3 4.428-5.183.124-.18.225-.312.48-.304 3.351.008 6.693.008 10.044.008.062-.016.124-.008.294.008Z" fill="#00B355"/></g><path d="M0 57.163V38.686h3.932c.734 0 1.335.119 1.804.357a2.5 2.5 0 0 1 1.09 1.029c.259.455.437 1.008.535 1.659.105.65.157 1.389.157 2.215v.325c0 1.218-.101 2.247-.304 3.087-.196.833-.549 1.466-1.059 1.9-.51.427-1.237.64-2.18.64H2.432v7.265H0Zm2.433-9.29h1.174c.42 0 .734-.113.944-.337.217-.23.36-.609.43-1.134.077-.532.115-1.245.115-2.141v-.357c0-1.113-.09-1.942-.273-2.488-.174-.546-.566-.82-1.174-.82H2.433v7.276ZM8.725 57.163V38.686h5.799v2.068h-3.366v5.921h3.187v2.047h-3.187v6.373h3.439v2.068H8.725ZM16.842 57.163V40.754h-2.097v-2.068h6.49v2.068h-1.971v16.41h-2.422ZM22.065 57.163V38.686h5.798v2.068h-3.366v5.921h3.188v2.047h-3.188v6.373h3.44v2.068h-5.872ZM29.322 57.163V38.686h4.194c.972 0 1.692.182 2.16.546.475.357.786.892.933 1.606.147.707.22 1.585.22 2.635 0 1.12-.115 2.005-.346 2.656-.223.644-.67 1.068-1.342 1.27.329.057.601.197.818.42.224.218.398.554.524 1.008.133.449.228 1.043.284 1.785.055.735.083 1.652.083 2.75V54.813l.021 1.008c.014.328.028.615.042.86.021.245.046.406.074.483h-2.433c-.021-.049-.042-.203-.063-.462a70.869 70.869 0 0 1-.073-2.446V50.77c0-.637-.035-1.12-.105-1.449-.07-.336-.213-.567-.43-.693-.217-.133-.549-.213-.996-.241l-1.133-.063v8.84h-2.432Zm2.443-10.677h1.268c.378 0 .665-.077.86-.23.203-.162.34-.466.41-.914.076-.448.115-1.11.115-1.984v-.116c0-.734-.035-1.29-.105-1.669-.07-.378-.21-.633-.42-.766-.202-.14-.513-.21-.933-.21h-1.195v5.89ZM41.685 57.373c-.755 0-1.377-.13-1.866-.388a2.797 2.797 0 0 1-1.133-1.113c-.272-.483-.461-1.06-.566-1.732a14.716 14.716 0 0 1-.157-2.257V50.15H40.3v1.869c0 1.169.087 2.005.262 2.51.182.503.556.755 1.122.755.385 0 .671-.09.86-.273.189-.182.311-.472.367-.871.056-.4.084-.928.084-1.586 0-.77-.147-1.445-.44-2.026-.287-.588-.71-1.172-1.27-1.753l-1.279-1.28c-.356-.379-.699-.781-1.027-1.208a5.957 5.957 0 0 1-.787-1.46c-.202-.538-.304-1.15-.304-1.837 0-.945.109-1.756.325-2.435.217-.68.591-1.197 1.122-1.554.539-.364 1.29-.546 2.255-.546.748 0 1.352.126 1.814.378.461.245.814.598 1.059 1.06.245.462.412 1.015.503 1.66.091.643.136 1.364.136 2.162v1.113h-2.285v-1.27c0-.673-.032-1.229-.095-1.67-.056-.448-.171-.784-.346-1.008-.175-.224-.437-.336-.786-.336-.329 0-.594.077-.797.231-.203.154-.35.392-.44.714-.091.315-.137.725-.137 1.228 0 .448.053.823.157 1.124.112.3.28.588.504.86.23.267.51.575.839.925l1.363 1.459a9.491 9.491 0 0 1 1.657 2.383c.419.854.629 1.827.629 2.918 0 1.057-.109 1.957-.325 2.699-.217.742-.591 1.308-1.122 1.7-.532.392-1.276.588-2.234.588ZM50.221 57.373c-.936 0-1.688-.203-2.254-.609-.566-.406-.975-1.011-1.227-1.816-.252-.812-.377-1.823-.377-3.034v-8.273c0-1.063.118-1.98.356-2.75.245-.777.65-1.376 1.216-1.795.567-.427 1.343-.64 2.328-.64.741 0 1.353.122 1.835.366.49.238.874.585 1.154 1.04.28.448.475.99.587 1.627.119.637.178 1.354.178 2.152v8.273c0 1.21-.122 2.222-.367 3.034-.237.805-.636 1.41-1.195 1.816-.552.406-1.297.61-2.234.61Zm0-2.11c.378 0 .665-.108.86-.325.196-.217.329-.57.399-1.06.07-.49.105-1.138.105-1.943v-8.42c0-.98-.084-1.714-.252-2.204-.168-.497-.524-.746-1.07-.746-.566 0-.95.242-1.153.725-.203.483-.304 1.221-.304 2.215v8.43c0 .812.035 1.463.105 1.953.07.483.206.833.409 1.05.21.217.51.325.901.325ZM55.874 57.163V38.686h1.877l4.12 11.958-.209-5.218v-6.74h2.17v18.477h-1.76l-4.09-12.178.136 4.735v7.443h-2.244ZM70.535 57.163V40.754h-2.097v-2.068h6.49v2.068h-1.97v16.41h-2.423ZM75.758 57.163V38.686h4.194c.972 0 1.692.182 2.16.546.475.357.786.892.933 1.606.147.707.22 1.585.22 2.635 0 1.12-.115 2.005-.346 2.656-.223.644-.67 1.068-1.342 1.27.329.057.601.197.818.42.224.218.398.554.524 1.008.133.449.228 1.043.284 1.785.055.735.083 1.652.083 2.75V54.813l.021 1.008c.014.328.028.615.042.86.021.245.046.406.074.483H80.99c-.021-.049-.042-.203-.063-.462a72.405 72.405 0 0 1-.073-2.446V50.77c0-.637-.035-1.12-.105-1.449-.07-.336-.213-.567-.43-.693-.217-.133-.549-.213-.996-.241l-1.133-.063v8.84h-2.432ZM78.2 46.486h1.269c.377 0 .664-.077.86-.23.202-.162.338-.466.408-.914.077-.448.116-1.11.116-1.984v-.116c0-.734-.035-1.29-.105-1.669-.07-.378-.21-.633-.42-.766-.202-.14-.513-.21-.933-.21h-1.195v5.89ZM83.958 57.163l2.727-18.477h3.072l2.946 18.477h-2.285l-.493-3.433h-3.188l-.45 3.433h-2.329Zm3.03-5.396h2.654l-1.364-9.564h-.031l-1.258 9.564ZM93.732 57.163V38.686h3.754c.95 0 1.698.196 2.244.588.552.392.943.955 1.174 1.69.238.728.357 1.603.357 2.625l.01 8.21c0 1.231-.129 2.243-.388 3.034-.251.79-.66 1.378-1.227 1.763-.566.378-1.317.567-2.254.567h-3.67Zm2.433-1.931h1.027c.37 0 .675-.077.912-.231.245-.161.427-.448.546-.861.125-.413.188-1.008.188-1.785l-.01-8.766c0-1.071-.13-1.837-.388-2.3-.252-.461-.678-.692-1.28-.692h-.995v14.635ZM103.128 57.163V38.686h5.799v2.068h-3.366v5.921h3.187v2.047h-3.187v6.373H109v2.068h-5.872Z" fill="#fff"/><defs><filter id="filter0_d_20_2487" x="11.561" y=".89" width="79.149" height="34.36" filterUnits="userSpaceOnUse" color-interpolation-filters="sRGB"><feFlood flood-opacity="0" result="BackgroundImageFix"/><feColorMatrix in="SourceAlpha" values="0 0 0 0 0 0 0 0 0 0 0 0 0 0 0 0 0 0 127 0" result="hardAlpha"/><feOffset dy=".549"/><feGaussianBlur stdDeviation="1.829"/><feComposite in2="hardAlpha" operator="out"/><feColorMatrix values="0 0 0 0 0 0 0 0 0 0 0 0 0 0 0 0 0 0 0.2 0"/><feBlend in2="BackgroundImageFix" result="effect1_dropShadow_20_2487"/><feBlend in="SourceGraphic" in2="effect1_dropShadow_20_2487" result="shape"/></filter><filter id="filter1_d_20_2487" x="11.16" y="59.571" width="80.921" height="34.912" filterUnits="userSpaceOnUse" color-interpolation-filters="sRGB"><feFlood flood-opacity="0" result="BackgroundImageFix"/><feColorMatrix in="SourceAlpha" values="0 0 0 0 0 0 0 0 0 0 0 0 0 0 0 0 0 0 127 0" result="hardAlpha"/><feOffset dy="-.549"/><feGaussianBlur stdDeviation="2.515"/><feComposite in2="hardAlpha" operator="out"/><feColorMatrix values="0 0 0 0 0 0 0 0 0 0 0 0 0 0 0 0 0 0 0.2 0"/><feBlend in2="BackgroundImageFix" result="effect1_dropShadow_20_2487"/><feBlend in="SourceGraphic" in2="effect1_dropShadow_20_2487" result="shape"/></filter><filter id="filter2_d_20_2487" x="29.62" y="7.062" width="67.73" height="28.188" filterUnits="userSpaceOnUse" color-interpolation-filters="sRGB"><feFlood flood-opacity="0" result="BackgroundImageFix"/><feColorMatrix in="SourceAlpha" values="0 0 0 0 0 0 0 0 0 0 0 0 0 0 0 0 0 0 127 0" result="hardAlpha"/><feOffset dy=".549"/><feGaussianBlur stdDeviation="1.829"/><feComposite in2="hardAlpha" operator="out"/><feColorMatrix values="0 0 0 0 0 0 0 0 0 0 0 0 0 0 0 0 0 0 0.2 0"/><feBlend in2="BackgroundImageFix" result="effect1_dropShadow_20_2487"/><feBlend in="SourceGraphic" in2="effect1_dropShadow_20_2487" result="shape"/></filter><filter id="filter3_d_20_2487" x="28.328" y="59.571" width="69.341" height="28.659" filterUnits="userSpaceOnUse" color-interpolation-filters="sRGB"><feFlood flood-opacity="0" result="BackgroundImageFix"/><feColorMatrix in="SourceAlpha" values="0 0 0 0 0 0 0 0 0 0 0 0 0 0 0 0 0 0 127 0" result="hardAlpha"/><feOffset dy="-.549"/><feGaussianBlur stdDeviation="2.515"/><feComposite in2="hardAlpha" operator="out"/><feColorMatrix values="0 0 0 0 0 0 0 0 0 0 0 0 0 0 0 0 0 0 0.2 0"/><feBlend in2="BackgroundImageFix" result="effect1_dropShadow_20_2487"/><feBlend in="SourceGraphic" in2="effect1_dropShadow_20_2487" result="shape"/></filter></defs></svg>