<svg width="71" height="21" fill="none" xmlns="http://www.w3.org/2000/svg"><g clip-path="url('#clip0_20_2518')"><path d="M20.823.005H.473A.476.476 0 0 0 .037.29.472.472 0 0 0 0 .471v20.057c0 .123.05.242.138.33.09.087.21.136.335.136h20.35a.479.479 0 0 0 .437-.286.471.471 0 0 0 .036-.18V.47a.463.463 0 0 0-.138-.33.477.477 0 0 0-.335-.136ZM14.198 13.53c0 .124-.05.243-.14.33a.477.477 0 0 1-.333.137H7.572a.478.478 0 0 1-.437-.287.473.473 0 0 1-.036-.18V7.468c0-.124.05-.243.138-.33a.476.476 0 0 1 .335-.137h6.153a.474.474 0 0 1 .473.467v6.063Zm49.227-6.529h-6.153a.47.47 0 0 0-.474.467v6.063a.47.47 0 0 0 .474.467h6.152a.47.47 0 0 0 .474-.467V7.47a.47.47 0 0 0-.474-.467ZM56.327.005h-6.152a.47.47 0 0 0-.474.467v6.063a.47.47 0 0 0 .474.467h6.152a.47.47 0 0 0 .473-.467V.472a.47.47 0 0 0-.473-.467Zm14.2 0h-6.153a.47.47 0 0 0-.473.467v6.063a.47.47 0 0 0 .474.467h6.151A.47.47 0 0 0 71 6.535V.472a.47.47 0 0 0-.474-.467Zm-14.2 13.993h-6.152a.47.47 0 0 0-.474.467v6.064a.47.47 0 0 0 .474.466h6.152a.47.47 0 0 0 .473-.466v-6.064a.47.47 0 0 0-.473-.467Zm14.2 0h-6.153a.47.47 0 0 0-.473.467v6.064a.47.47 0 0 0 .474.466h6.151a.47.47 0 0 0 .474-.466v-6.064a.47.47 0 0 0-.474-.467ZM45.67.005H39.52a.47.47 0 0 0-.474.467v6.063a.47.47 0 0 0 .474.467h6.151a.47.47 0 0 0 .474-.467V.472a.47.47 0 0 0-.474-.467Zm0 13.993H39.52a.47.47 0 0 0-.474.467v6.064a.47.47 0 0 0 .474.466h6.151a.47.47 0 0 0 .474-.466v-6.064a.47.47 0 0 0-.474-.467Zm-6.627-6.535a.467.467 0 0 0-.473-.467h-6.626V.471a.462.462 0 0 0-.138-.33.477.477 0 0 0-.335-.136h-6.152a.476.476 0 0 0-.437.286.472.472 0 0 0-.037.18v20.046c0 .124.05.243.139.33.089.088.209.137.335.137h6.152c.125 0 .246-.05.335-.137a.462.462 0 0 0 .138-.33v-6.524h6.625a.478.478 0 0 0 .437-.287.473.473 0 0 0 .037-.18V7.463Z" fill="#fff"/></g><defs><clipPath id="clip0_20_2518"><path fill="#fff" d="M0 0h71v21H0z"/></clipPath></defs></svg>