<svg width="234" height="84" fill="none" xmlns="http://www.w3.org/2000/svg"><path d="M37.411 47.888c-1.862-1.063-3.307-2.545-4.308-4.475-1.028-1.93-1.528-4.168-1.528-6.685v-8.84c0-2.517.528-4.755 1.556-6.685 1.029-1.93 2.502-3.44 4.392-4.476 1.89-1.062 4.085-1.594 6.56-1.594h5.058c2.39 0 4.475.504 6.309 1.539 1.807 1.034 3.224 2.461 4.225 4.307 1 1.846 1.5 3.972 1.5 6.406H54.7c0-1.93-.5-3.469-1.53-4.644-1.028-1.174-2.362-1.762-4.002-1.762H44.11c-1.779 0-3.224.672-4.28 1.986-1.084 1.315-1.612 3.077-1.612 5.203v8.252c0 2.154.528 3.888 1.584 5.203 1.056 1.314 2.418 1.986 4.141 1.986h5.142c1.696 0 3.057-.644 4.114-1.958 1.056-1.315 1.584-3.05 1.584-5.175h6.476c0 2.601-.5 4.867-1.529 6.853-1.028 1.958-2.446 3.496-4.28 4.56-1.834 1.062-3.975 1.594-6.393 1.594h-5.142c-2.501 0-4.641-.532-6.504-1.595ZM83.94 41.259H71.431l-2.946 7.832H61.62l13.063-33.595h2.946c2.057 0 3.474.952 4.197 2.882L93.695 49.09H86.83l-2.89-7.832Zm-10.73-5.567h8.978l-4.447-12.084h-.055L73.21 35.692ZM97.836 47.86c-.834-.811-1.251-1.902-1.251-3.245V15.496h6.587V43.33h18.122v5.762h-20.067c-1.418 0-2.558-.42-3.391-1.23ZM124.602 15.496h17.594c1.945 0 3.669.364 5.142 1.12 1.501.755 2.668 1.817 3.474 3.216.834 1.399 1.251 2.993 1.251 4.783v4.476c0 1.846-.417 3.496-1.279 4.923-.861 1.426-2.057 2.517-3.613 3.3-1.529.784-3.335 1.175-5.364 1.175h-10.618v10.602h-6.587V15.496Zm17.149 17.231c1.112 0 2.029-.363 2.724-1.09.695-.728 1.056-1.679 1.056-2.854v-3.888c0-1.119-.306-2.014-.917-2.657-.612-.644-1.445-.98-2.446-.98h-10.979v11.47h10.562ZM156.176 15.496h6.587v33.595h-6.587V15.496ZM169.156 15.496h5.865l16.037 22.854V15.496h6.448v33.595h-5.864l-16.037-22.853V49.09h-6.449V15.496ZM208.374 47.888c-1.89-1.063-3.336-2.545-4.364-4.475-1.028-1.93-1.556-4.168-1.556-6.685v-8.84c0-2.517.528-4.755 1.556-6.685 1.028-1.93 2.502-3.44 4.392-4.476 1.89-1.062 4.085-1.594 6.559-1.594h5.337c2.39 0 4.474.476 6.309 1.427a10.286 10.286 0 0 1 4.225 4.084c1 1.762 1.5 3.804 1.5 6.098h-6.476c0-1.735-.5-3.133-1.528-4.168-1.029-1.063-2.363-1.595-4.003-1.595h-5.336c-1.779 0-3.224.672-4.281 1.986-1.083 1.315-1.612 3.077-1.612 5.203v8.252c0 2.154.529 3.888 1.585 5.203 1.056 1.314 2.473 1.986 4.224 1.986h5.615c1.612 0 2.974-.588 4.03-1.763 1.056-1.174 1.584-2.657 1.584-4.42v-1.062h-9.255v-5.762h15.731v6.825c0 2.35-.5 4.42-1.528 6.238a11.08 11.08 0 0 1-4.281 4.28c-1.834 1.034-3.946 1.538-6.309 1.538h-5.642c-2.446 0-4.614-.532-6.476-1.595ZM21.79 29.733c3.197 0 5.782 2.63 5.726 5.847-.027 3.076-.139 6.433-.305 7.552-.584 3.58-3.697 6.098-7.366 6.21-3.502.084-6.976.112-10.478 0-4.586-.14-7.894-3.637-7.977-8.28v-2.406h5.836c0 .728-.027 1.483 0 2.266.056 1.734.779 2.602 2.446 2.63 3.224.056 6.449.056 9.645 0 1.668-.029 2.446-.952 2.446-2.658.055-3.189.028-10.545.028-11.16ZM7.254 35.188a5.814 5.814 0 0 1-5.81-5.874v-2.182c0-2.042.028-4.112.417-6.098.668-3.413 3.975-5.986 7.45-6.042 3.307-.028 6.614-.028 9.95 0 4.586.028 8.227 3.552 8.282 8.168.028 1.986.028 2.63.028 2.63s-4.614.027-5.781.027c0-.923.028-1.65 0-2.405-.028-1.427-1.167-2.574-2.557-2.602-3.14-.056-6.31-.056-9.45 0-1.64.028-2.502 1.035-2.53 2.77-.027 3.188 0 11.132 0 11.608Z" fill="#fff"/><path d="M12.424 52.64v6.492a1 1 0 0 0 1 1.008h2.168a1 1 0 0 0 1.001-1.008V52.64h-4.17ZM12.424 4.368v7.392h4.169V4.368a1 1 0 0 0-1-1.007h-2.169c-.528-.028-1 .448-1 1.007ZM18.763 37.96a2.36 2.36 0 0 1-2.36 2.36h-3.851a2.36 2.36 0 0 1-2.36-2.36V26.44a2.36 2.36 0 0 1 2.359-2.36h3.851a2.36 2.36 0 0 1 2.36 2.36l.001 11.52Z" fill="#2AF895"/><path d="M8.867 79.917c-1.111-.644-1.973-1.567-2.585-2.77-.611-1.202-.917-2.545-.917-4.111v-16.28h2.502V73.12c0 1.65.444 2.992 1.306 4 .89 1.006 2.029 1.51 3.474 1.51h3.67c1.445 0 2.612-.504 3.474-1.51.889-1.008 1.306-2.35 1.306-4V56.755h2.501v16.28c0 1.538-.305 2.909-.917 4.111-.611 1.203-1.473 2.126-2.585 2.77-1.112.643-2.39.979-3.835.979h-3.558c-1.445-.028-2.724-.336-3.836-.98ZM33.354 56.756h2.363l13.118 19.86v-19.86h2.446v23.832H48.92l-13.12-19.72v19.72h-2.445V56.756ZM61.426 56.756h2.501v23.832h-2.501V56.756ZM80.938 80.224c-.278-.251-.528-.643-.722-1.202l-8.089-22.266h2.585l7.366 20.811h.028l7.42-20.811h2.586L83.3 80.588h-1.279c-.445 0-.806-.112-1.084-.364ZM100.533 80c-.389-.391-.584-.95-.584-1.65V56.756h15.899v2.182h-13.397v8.391h12.396v2.182h-12.396v8.923h13.397v2.182h-13.703c-.695-.028-1.223-.224-1.612-.615ZM124.658 56.756h11.507c1.723 0 3.14.504 4.169 1.483 1.056.979 1.584 2.293 1.584 3.888v2.49a4.92 4.92 0 0 1-1.14 3.188c-.778.923-1.806 1.566-3.085 1.958v.028c.667.364 1.279.951 1.835 1.734s.972 1.678 1.278 2.685l1.862 6.378h-2.584l-1.863-6.377c-.305-1.12-.861-2.014-1.64-2.686-.778-.671-1.639-1.035-2.557-1.035h-6.865v10.07h-2.501V56.756Zm10.617 11.524c1.251 0 2.251-.335 3.002-1.007.75-.67 1.139-1.538 1.139-2.629v-2.63c0-.894-.305-1.622-.917-2.181-.611-.532-1.417-.811-2.39-.811h-8.922v9.258h8.088ZM153.537 80a6.223 6.223 0 0 1-2.419-2.461c-.583-1.063-.861-2.266-.861-3.664h2.446c0 1.398.417 2.545 1.223 3.412.834.867 1.917 1.315 3.279 1.315h3.725c1.334 0 2.39-.308 3.224-.895.834-.588 1.223-1.399 1.223-2.378v-2.182c0-.783-.306-1.426-.889-1.986-.612-.531-1.418-.895-2.446-1.063l-6.087-1.035c-1.724-.307-3.058-.895-4.003-1.846-.945-.923-1.417-2.098-1.417-3.496v-1.846c0-1.65.611-2.993 1.834-3.972 1.223-.98 2.863-1.483 4.892-1.483h3.836c1.917 0 3.474.587 4.641 1.762 1.168 1.175 1.751 2.714 1.751 4.616h-2.446c0-1.259-.361-2.238-1.084-2.993-.722-.756-1.667-1.12-2.862-1.12h-3.836c-1.279 0-2.307.28-3.085.868-.778.587-1.14 1.37-1.14 2.322v1.846c0 .783.278 1.454.862 2.014.584.531 1.362.895 2.39 1.09l6.059 1.064c1.751.307 3.113.923 4.086 1.818.973.895 1.445 2.042 1.445 3.412v2.182c0 1.65-.639 2.993-1.89 4-1.25 1.007-2.918 1.51-4.975 1.51h-3.891c-1.362.057-2.557-.223-3.585-.81ZM177.022 56.756h2.502v23.832h-2.502V56.756ZM195.505 58.938h-7.504v-2.182h17.538v2.182h-7.504v21.65h-2.502v-21.65h-.028ZM220.215 71.441l-8.728-14.685h2.696l7.282 12.391 7.283-12.391h2.696l-8.728 14.685v9.175h-2.501v-9.175Z" fill="#fff" fill-opacity=".5"/></svg>