<svg width="28" height="28" viewBox="0 0 28 28" fill="none" xmlns="http://www.w3.org/2000/svg">
<path fill-rule="evenodd" clip-rule="evenodd" d="M6.00049 0C4.40946 -1.17319e-07 2.88356 0.631877 1.75832 1.75669C0.633074 2.8815 0.000610995 4.40716 0 5.99819V21.9995C0 23.5909 0.632193 25.1172 1.7575 26.2425C2.88281 27.3678 4.40906 28 6.00049 28H22.0018C23.5928 27.9994 25.1185 27.3669 26.2433 26.2417C27.3681 25.1164 28 23.5905 28 21.9995V5.99819C27.9994 4.40756 27.3672 2.88225 26.2425 1.7575C25.1177 0.632757 23.5924 0.000610724 22.0018 0H6.00049ZM23.7278 6.00741C23.7278 6.46577 23.5457 6.90536 23.2216 7.22947C22.8975 7.55358 22.4579 7.73566 21.9995 7.73566C21.5411 7.73566 21.1016 7.55358 20.7774 7.22947C20.4533 6.90536 20.2713 6.46577 20.2713 6.00741C20.2713 5.54905 20.4533 5.10946 20.7774 4.78535C21.1016 4.46124 21.5411 4.27915 21.9995 4.27915C22.4579 4.27915 22.8975 4.46124 23.2216 4.78535C23.5457 5.10946 23.7278 5.54905 23.7278 6.00741ZM14.0035 9.20583C12.7323 9.20583 11.5131 9.7108 10.6143 10.6097C9.71541 11.5085 9.21043 12.7277 9.21043 13.9988C9.21043 15.27 9.71541 16.4892 10.6143 17.388C11.5131 18.2869 12.7323 18.7919 14.0035 18.7919C15.2746 18.7919 16.4938 18.2869 17.3926 17.388C18.2915 16.4892 18.7965 15.27 18.7965 13.9988C18.7965 12.7277 18.2915 11.5085 17.3926 10.6097C16.4938 9.7108 15.2746 9.20583 14.0035 9.20583ZM6.90379 13.9988C6.90379 12.1165 7.65155 10.3113 8.98256 8.98026C10.3136 7.64925 12.1188 6.90149 14.0012 6.90149C15.8835 6.90149 17.6887 7.64925 19.0197 8.98026C20.3508 10.3113 21.0985 12.1165 21.0985 13.9988C21.0985 15.8812 20.3508 17.6864 19.0197 19.0174C17.6887 20.3485 15.8835 21.0962 14.0012 21.0962C12.1188 21.0962 10.3136 20.3485 8.98256 19.0174C7.65155 17.6864 6.90379 15.8812 6.90379 13.9988Z" fill="url('#paint0_radial_20_5701')"></path>
<path fill-rule="evenodd" clip-rule="evenodd" d="M6.00049 0C4.40946 -1.17319e-07 2.88356 0.631877 1.75832 1.75669C0.633074 2.8815 0.000610995 4.40716 0 5.99819V21.9995C0 23.5909 0.632193 25.1172 1.7575 26.2425C2.88281 27.3678 4.40906 28 6.00049 28H22.0018C23.5928 27.9994 25.1185 27.3669 26.2433 26.2417C27.3681 25.1164 28 23.5905 28 21.9995V5.99819C27.9994 4.40756 27.3672 2.88225 26.2425 1.7575C25.1177 0.632757 23.5924 0.000610724 22.0018 0H6.00049ZM23.7278 6.00741C23.7278 6.46577 23.5457 6.90536 23.2216 7.22947C22.8975 7.55358 22.4579 7.73566 21.9995 7.73566C21.5411 7.73566 21.1016 7.55358 20.7774 7.22947C20.4533 6.90536 20.2713 6.46577 20.2713 6.00741C20.2713 5.54905 20.4533 5.10946 20.7774 4.78535C21.1016 4.46124 21.5411 4.27915 21.9995 4.27915C22.4579 4.27915 22.8975 4.46124 23.2216 4.78535C23.5457 5.10946 23.7278 5.54905 23.7278 6.00741ZM14.0035 9.20583C12.7323 9.20583 11.5131 9.7108 10.6143 10.6097C9.71541 11.5085 9.21043 12.7277 9.21043 13.9988C9.21043 15.27 9.71541 16.4892 10.6143 17.388C11.5131 18.2869 12.7323 18.7919 14.0035 18.7919C15.2746 18.7919 16.4938 18.2869 17.3926 17.388C18.2915 16.4892 18.7965 15.27 18.7965 13.9988C18.7965 12.7277 18.2915 11.5085 17.3926 10.6097C16.4938 9.7108 15.2746 9.20583 14.0035 9.20583ZM6.90379 13.9988C6.90379 12.1165 7.65155 10.3113 8.98256 8.98026C10.3136 7.64925 12.1188 6.90149 14.0012 6.90149C15.8835 6.90149 17.6887 7.64925 19.0197 8.98026C20.3508 10.3113 21.0985 12.1165 21.0985 13.9988C21.0985 15.8812 20.3508 17.6864 19.0197 19.0174C17.6887 20.3485 15.8835 21.0962 14.0012 21.0962C12.1188 21.0962 10.3136 20.3485 8.98256 19.0174C7.65155 17.6864 6.90379 15.8812 6.90379 13.9988Z" fill="url('#paint1_radial_20_5701')"></path>
<defs>
<radialGradient id="paint0_radial_20_5701" cx="0" cy="0" r="1" gradientUnits="userSpaceOnUse" gradientTransform="translate(7.4375 30.1565) rotate(-90) scale(27.7501 25.8098)">
<stop stop-color="#FFDD55"></stop>
<stop offset="0.1" stop-color="#FFDD55"></stop>
<stop offset="0.5" stop-color="#FF543E"></stop>
<stop offset="1" stop-color="#C837AB"></stop>
</radialGradient>
<radialGradient id="paint1_radial_20_5701" cx="0" cy="0" r="1" gradientUnits="userSpaceOnUse" gradientTransform="translate(-4.69011 2.01698) rotate(78.681) scale(12.4044 51.1315)">
<stop stop-color="#3771C8"></stop>
<stop offset="0.128" stop-color="#3771C8"></stop>
<stop offset="1" stop-color="#6600FF" stop-opacity="0"></stop>
</radialGradient>
</defs>
</svg>
