<svg width="28" height="28" fill="none" xmlns="http://www.w3.org/2000/svg"><path d="M22.002.005a6 6 0 0 1 5.998 6V22a6 6 0 0 1-6 6H6a6 6 0 0 1-6-6V6.001a6 6 0 0 1 6.001-6l16 .004ZM17.11 6.304h-.046l-.3.291c3.065.88 4.547 2.249 4.547 2.249-1.973-.976-3.758-1.467-5.535-1.667-1.281-.194-2.57-.09-3.654 0h-.3c-.693 0-2.17.297-4.15 1.078-.688.297-1.086.491-1.086.491s1.478-1.467 4.745-2.248l-.202-.194s-2.47-.098-5.137 1.855c0 0-2.666 4.595-2.666 10.255 0 0 1.477 2.54 5.53 2.637 0 0 .594-.776 1.189-1.46-2.274-.686-3.163-2.056-3.163-2.056s.202.098.497.292h.086c.047 0 .07.023.092.046v.011c.023.023.047.04.087.04.49.199.975.393 1.374.587.692.291 1.576.587 2.66.782 1.375.2 2.95.292 4.745 0 .883-.2 1.772-.388 2.66-.782.573-.292 1.282-.582 2.061-1.078 0 0-.883 1.37-3.256 2.054.485.68 1.171 1.46 1.171 1.46 4.058-.09 5.634-2.63 5.72-2.522 0-5.655-2.684-10.255-2.684-10.255-2.413-1.775-4.676-1.843-5.074-1.843l.081-.029.008.006Zm.248 6.45c1.04 0 1.877.873 1.877 1.946 0 1.085-.843 1.957-1.877 1.957-1.04 0-1.876-.874-1.876-1.946 0-1.085.842-1.957 1.876-1.957Zm-6.712 0c1.033 0 1.87.873 1.87 1.946 0 1.085-.842 1.957-1.876 1.957-1.04 0-1.882-.874-1.882-1.946 0-1.085.843-1.957 1.882-1.957h.006Z" fill="#5865F2"/></svg>