<svg width="28" height="28" fill="none" xmlns="http://www.w3.org/2000/svg"><path fill-rule="evenodd" clip-rule="evenodd" d="M6 0a6 6 0 0 0-6 5.998V22a6 6 0 0 0 6 6h16.002A6 6 0 0 0 28 22V5.998A6 6 0 0 0 22.002 0H6Zm17.728 6.007a1.728 1.728 0 1 1-3.457 0 1.728 1.728 0 0 1 3.457 0Zm-9.725 3.199a4.793 4.793 0 1 0 0 9.585 4.793 4.793 0 0 0 0-9.585Zm-7.1 4.793a7.097 7.097 0 1 1 14.196 0 7.097 7.097 0 0 1-14.195 0Z" fill="url('#paint0_radial_20_5701')"/><path fill-rule="evenodd" clip-rule="evenodd" d="M6 0a6 6 0 0 0-6 5.998V22a6 6 0 0 0 6 6h16.002A6 6 0 0 0 28 22V5.998A6 6 0 0 0 22.002 0H6Zm17.728 6.007a1.728 1.728 0 1 1-3.457 0 1.728 1.728 0 0 1 3.457 0Zm-9.725 3.199a4.793 4.793 0 1 0 0 9.585 4.793 4.793 0 0 0 0-9.585Zm-7.1 4.793a7.097 7.097 0 1 1 14.196 0 7.097 7.097 0 0 1-14.195 0Z" fill="url('#paint1_radial_20_5701')"/><defs><radialGradient id="paint0_radial_20_5701" cx="0" cy="0" r="1" gradientUnits="userSpaceOnUse" gradientTransform="matrix(0 -27.7501 25.8098 0 7.438 30.157)"><stop stop-color="#FD5"/><stop offset=".1" stop-color="#FD5"/><stop offset=".5" stop-color="#FF543E"/><stop offset="1" stop-color="#C837AB"/></radialGradient><radialGradient id="paint1_radial_20_5701" cx="0" cy="0" r="1" gradientUnits="userSpaceOnUse" gradientTransform="matrix(2.43463 12.16313 -50.13697 10.03565 -4.69 2.017)"><stop stop-color="#3771C8"/><stop offset=".128" stop-color="#3771C8"/><stop offset="1" stop-color="#60F" stop-opacity="0"/></radialGradient></defs></svg>