<svg width="28" height="28" fill="none" xmlns="http://www.w3.org/2000/svg"><path d="M6 0a6 6 0 0 0-6 6v16a6 6 0 0 0 6 6h16a6 6 0 0 0 6-6V6a6 6 0 0 0-6-6H6Zm14.496 9.52c-.21 2.212-1.12 7.588-1.582 10.066-.196 1.05-.588 1.4-.952 1.442-.812.07-1.428-.532-2.212-1.05-1.232-.812-1.932-1.316-3.122-2.1-1.386-.91-.49-1.414.308-2.226.21-.21 3.794-3.472 3.864-3.766a.28.28 0 0 0-.07-.252c-.084-.07-.196-.042-.294-.028-.126.028-2.086 1.33-5.908 3.906-.56.378-1.064.574-1.512.56-.504-.014-1.456-.28-2.17-.518-.882-.28-1.568-.434-1.512-.924.028-.252.378-.504 1.036-.77 4.088-1.778 6.804-2.954 8.162-3.514 3.892-1.624 4.69-1.904 5.222-1.904.112 0 .378.028.546.168.14.112.182.266.196.378-.014.084.014.336 0 .532Z" fill="url('#paint0_linear_20_5724')"/><defs><linearGradient id="paint0_linear_20_5724" x1="1400.01" y1="0" x2="1400.01" y2="2800.01" gradientUnits="userSpaceOnUse"><stop stop-color="#2AABEE"/><stop offset="1" stop-color="#229ED9"/></linearGradient></defs></svg>