<svg width="172" height="27" fill="none" xmlns="http://www.w3.org/2000/svg"><path d="M47.273 20.155h3.087V7.636h4.036V4.61H43.264v3.027h4.01v12.519Zm7.123 0h2.902v-5.237c0-1.827.897-2.918 2.295-2.918.475 0 .87.082 1.32.246V9.19a4.01 4.01 0 0 0-.977-.136c-1.187 0-2.269.818-2.638 1.882V9.19h-2.902v10.964Zm12.082.245c1.451 0 2.56-.763 3.06-1.473v1.228h2.902V9.218H69.54v1.227c-.475-.709-1.583-1.472-3.06-1.472-2.823 0-4.986 2.618-4.986 5.727 0 3.082 2.163 5.7 4.985 5.7Zm.607-2.727c-1.61 0-2.664-1.255-2.664-2.973s1.055-2.973 2.664-2.973c1.61 0 2.665 1.255 2.665 2.973s-1.056 2.973-2.665 2.973Zm12.24 2.727c1.452 0 2.56-.763 3.06-1.473v1.228h2.903V3.736h-2.902v6.71c-.475-.71-1.583-1.473-3.06-1.473-2.823 0-4.986 2.618-4.986 5.727.026 3.082 2.163 5.7 4.986 5.7Zm.634-2.727c-1.61 0-2.665-1.255-2.665-2.973s1.056-2.973 2.665-2.973 2.664 1.255 2.664 2.973-1.055 2.973-2.664 2.973Zm9.365-10.118c1.029 0 1.873-.846 1.873-1.91 0-1.063-.844-1.909-1.873-1.909-1.003 0-1.847.846-1.847 1.91.027 1.036.844 1.881 1.847 1.909Zm-1.425 12.6h2.902V9.327H87.9v10.828Zm5.461 0h2.902v-5.346c0-2.1 1.002-3.109 2.348-3.109 1.213 0 1.873.955 1.873 2.537v5.918h2.902v-6.41c0-2.836-1.531-4.772-4.09-4.772-1.371 0-2.453.6-3.033 1.5V9.218H93.36v10.937Zm17.411-2.919c-1.451 0-2.691-1.145-2.691-2.809 0-1.69 1.214-2.809 2.691-2.809 1.451 0 2.691 1.118 2.691 2.81 0 1.69-1.214 2.808-2.691 2.808Zm-.343 7.664c3.245 0 5.698-1.718 5.698-5.645V9.164h-2.902v1.227c-.58-.845-1.714-1.473-3.06-1.473-2.77 0-4.986 2.455-4.986 5.537 0 3.054 2.216 5.509 4.986 5.509 1.346 0 2.506-.627 3.06-1.446v.737c0 1.745-1.134 3-2.849 3-1.187 0-2.374-.41-3.297-1.364l-1.583 2.236c1.213 1.228 3.086 1.773 4.933 1.773Zm11.845-4.745h2.743l6.226-15.546h-3.376l-4.195 10.8-4.247-10.8H116.1l6.173 15.546ZM133.88 7.418c1.029 0 1.847-.845 1.873-1.909 0-1.063-.844-1.909-1.873-1.909-1.002 0-1.846.846-1.846 1.91 0 1.063.87 1.908 1.846 1.908Zm-1.424 12.737h2.902V9.19h-2.902v10.964Zm10.394.245c2.216 0 3.904-.954 4.906-2.454l-2.163-1.664c-.475.764-1.398 1.39-2.743 1.39-1.399 0-2.638-.817-2.823-2.29h7.914c.053-.464.053-.764.053-1.036 0-3.573-2.427-5.373-5.224-5.373-3.218 0-5.566 2.482-5.566 5.7.053 3.464 2.506 5.727 5.646 5.727Zm-2.691-7.036c.29-1.337 1.477-1.91 2.559-1.91 1.081 0 2.136.6 2.4 1.91h-4.959Zm18.73 6.79h2.875l3.482-10.963h-3.112l-1.979 7.01-2.163-7.01h-2.216l-2.137 7.01-2.005-7.01h-3.086l3.508 10.964h2.876l1.978-6.219 1.979 6.219ZM18.678 20.155H12.82v-9.491H6.965V4.609H18.65v15.546h.027Zm11.713 0h-6.675l6.279-15.546h6.674l-6.278 15.546ZM23.69 4.609c1.847 0 3.35 1.555 3.35 3.464s-1.503 3.463-3.35 3.463c-1.847 0-3.35-1.554-3.35-3.463.026-1.91 1.503-3.464 3.35-3.464Z" fill="#fff"/></svg>